<svg id="svg" version="1.1" width="400" height="239.05723905723906" viewBox="0 0 400 239.05723905723906" xmlns="http://www.w3.org/2000/svg" xmlns:xlink="http://www.w3.org/1999/xlink"><g id="svgg"><path id="path0" d="M0.000 119.546 L 0.000 239.091 24.009 239.091 C 42.992 239.091,48.043 239.029,48.138 238.793 C 48.235 238.553,48.262 238.553,48.278 238.793 C 48.305 239.232,109.168 239.232,109.346 238.793 C 109.442 238.553,109.470 238.553,109.485 238.793 C 109.513 239.232,230.387 239.232,230.565 238.793 C 230.661 238.553,230.689 238.553,230.704 238.793 C 230.732 239.232,351.607 239.232,351.784 238.793 C 351.881 238.553,351.909 238.553,351.924 238.793 C 351.939 239.030,356.918 239.091,375.971 239.091 L 400.000 239.091 400.000 119.546 L 400.000 0.000 200.000 0.000 L 0.000 0.000 0.000 119.546 M213.150 23.088 C 216.531 24.693,218.288 31.370,215.882 33.473 C 215.807 33.538,215.683 33.761,215.607 33.968 C 215.271 34.883,212.547 35.898,210.640 35.819 L 208.846 35.744 208.782 29.532 C 208.747 26.115,208.771 23.183,208.835 23.016 C 209.007 22.567,212.161 22.619,213.150 23.088 M209.551 23.975 C 209.487 24.142,209.464 26.644,209.499 29.533 L 209.564 34.788 210.984 34.861 C 213.105 34.970,215.421 33.622,215.421 32.278 C 215.421 31.934,215.579 31.443,215.772 31.187 C 215.966 30.932,216.123 30.239,216.123 29.647 C 216.123 29.056,215.966 28.363,215.772 28.107 C 215.579 27.852,215.421 27.343,215.421 26.977 C 215.421 26.488,215.071 25.960,214.101 24.990 L 212.781 23.670 211.225 23.670 C 210.185 23.670,209.629 23.771,209.551 23.975 M92.628 36.248 C 93.016 36.397,93.168 37.298,92.806 37.298 C 92.636 37.298,92.423 37.634,91.859 38.793 C 91.811 38.891,92.049 38.972,92.389 38.972 C 93.214 38.972,93.351 42.173,92.557 42.891 C 91.845 43.535,88.850 43.350,88.751 42.657 C 88.650 41.951,89.260 41.480,89.657 41.958 C 89.963 42.326,90.989 42.436,91.672 42.174 C 92.557 41.835,92.161 39.928,91.206 39.928 C 89.911 39.928,89.962 38.706,91.302 37.597 C 91.601 37.350,91.454 37.298,90.452 37.298 C 89.146 37.298,88.492 36.888,88.996 36.384 C 89.287 36.093,91.962 35.992,92.628 36.248 M112.134 36.757 C 114.154 37.179,116.092 37.964,116.864 38.673 C 117.043 38.837,117.280 38.972,117.391 38.972 C 118.043 38.972,121.458 42.524,121.458 43.202 C 121.458 43.374,121.566 43.515,121.698 43.515 C 121.829 43.515,121.937 43.676,121.937 43.873 C 121.937 44.525,167.995 44.404,168.202 43.751 C 168.631 42.399,171.483 42.338,171.819 43.674 L 171.959 44.232 197.755 44.232 L 223.551 44.232 223.551 41.482 C 223.551 39.012,223.601 38.682,224.050 38.233 L 224.550 37.733 225.126 38.275 C 225.651 38.768,225.702 39.006,225.702 40.926 C 225.702 43.545,225.185 43.591,231.540 40.403 C 237.966 37.179,237.657 37.129,237.657 41.400 L 237.657 44.232 263.463 44.232 C 289.105 44.232,289.269 44.229,289.421 43.751 C 289.850 42.399,292.703 42.338,293.038 43.674 L 293.178 44.232 316.404 44.236 C 329.178 44.238,339.763 44.324,339.926 44.428 C 340.157 44.574,340.237 47.919,340.285 59.308 L 340.347 73.999 342.732 74.068 C 344.782 74.127,345.194 74.209,345.661 74.648 L 346.204 75.158 346.204 87.235 C 346.204 101.739,346.556 100.418,342.697 100.418 L 340.228 100.418 340.168 148.536 L 340.108 196.653 316.730 196.714 L 293.352 196.775 293.127 197.368 C 292.598 198.760,289.970 198.744,289.332 197.344 L 289.072 196.772 230.603 196.772 L 172.134 196.772 171.908 197.366 C 171.378 198.760,168.751 198.745,168.113 197.345 L 167.853 196.773 101.799 196.713 L 35.744 196.653 35.625 157.718 L 35.505 118.784 34.621 118.480 C 34.135 118.313,33.323 118.110,32.816 118.029 C 30.064 117.589,25.725 114.047,24.277 111.058 C 22.339 107.059,22.877 100.825,25.416 97.868 C 26.693 96.381,28.178 94.919,28.412 94.919 C 28.553 94.919,28.753 94.783,28.858 94.616 C 29.182 94.104,32.220 92.767,33.061 92.767 C 33.498 92.767,33.958 92.669,34.082 92.549 C 34.207 92.428,34.579 92.294,34.907 92.250 L 35.505 92.170 35.625 68.261 L 35.744 44.351 66.245 44.291 L 96.745 44.230 97.269 43.298 C 98.970 40.272,103.935 36.833,106.627 36.816 C 106.960 36.814,107.394 36.704,107.591 36.571 C 107.986 36.305,110.449 36.406,112.134 36.757 M128.101 39.393 L 128.168 42.319 128.776 42.319 C 129.226 42.319,129.363 42.428,129.303 42.738 C 129.191 43.318,125.164 43.377,125.164 42.797 C 125.164 42.558,125.483 42.399,126.121 42.319 L 127.077 42.200 127.149 40.550 C 127.245 38.331,127.113 38.025,126.366 38.727 C 125.825 39.236,125.045 39.267,125.045 38.780 C 125.045 38.366,127.276 36.322,127.649 36.394 C 127.973 36.456,128.044 36.931,128.101 39.393 M105.439 38.862 C 105.111 39.040,104.304 39.425,103.646 39.716 C 102.197 40.360,98.506 43.947,98.506 44.712 C 98.506 45.038,99.683 46.378,101.889 48.563 L 105.272 51.913 109.341 51.838 C 112.329 51.783,113.436 51.684,113.509 51.464 C 113.564 51.300,113.712 51.166,113.840 51.166 C 114.649 51.166,115.690 49.394,115.287 48.701 C 114.894 48.024,114.899 47.995,115.454 47.613 C 116.287 47.041,118.071 46.007,119.311 45.378 C 120.294 44.878,120.739 43.993,120.006 43.993 C 119.885 43.993,119.785 43.889,119.785 43.762 C 119.785 43.360,116.173 39.928,115.750 39.928 C 115.623 39.928,115.162 39.748,114.724 39.528 C 114.285 39.308,113.641 38.985,113.292 38.811 C 112.409 38.369,106.274 38.409,105.439 38.862 M231.337 42.319 L 227.529 44.232 231.647 44.232 L 235.764 44.232 235.694 42.398 C 235.606 40.067,235.811 40.071,231.337 42.319 M36.581 68.712 L 36.581 92.235 37.238 92.370 C 37.600 92.444,38.434 92.610,39.091 92.739 C 41.527 93.216,46.623 96.731,46.623 97.934 C 46.623 98.117,46.726 98.267,46.852 98.267 C 47.174 98.267,48.536 101.284,48.536 101.997 C 48.536 102.321,48.697 102.972,48.894 103.444 C 49.091 103.916,49.253 104.814,49.253 105.439 C 49.253 106.065,49.091 106.963,48.894 107.435 C 48.697 107.907,48.536 108.548,48.536 108.860 C 48.536 109.451,47.297 112.116,46.641 112.936 C 46.015 113.719,43.815 115.959,43.672 115.959 C 43.599 115.959,43.060 116.282,42.476 116.677 C 41.891 117.071,41.306 117.394,41.176 117.394 C 41.046 117.394,40.631 117.555,40.254 117.751 C 39.878 117.948,39.326 118.109,39.028 118.110 C 38.730 118.111,38.058 118.245,37.534 118.408 L 36.581 118.706 36.581 157.261 L 36.581 195.816 102.327 195.816 L 168.072 195.816 168.223 195.216 C 168.314 194.853,168.598 194.560,168.944 194.473 L 169.514 194.330 169.575 161.779 L 169.635 129.229 170.183 129.151 C 172.712 128.793,172.738 124.407,170.214 124.051 C 169.516 123.952,169.441 123.293,170.114 123.172 C 172.734 122.702,172.782 118.632,170.173 118.018 C 169.333 117.820,169.323 117.212,170.157 117.003 C 171.898 116.566,173.129 113.185,171.727 112.688 C 171.497 112.606,171.148 112.405,170.950 112.242 C 170.753 112.078,170.377 111.905,170.114 111.856 C 169.457 111.736,169.509 111.076,170.183 110.980 C 171.690 110.767,173.232 106.635,171.804 106.635 C 171.616 106.635,171.311 106.483,171.126 106.298 C 170.940 106.113,170.529 105.924,170.212 105.879 L 169.635 105.798 169.575 76.324 L 169.514 46.849 168.917 46.622 C 168.589 46.498,168.320 46.293,168.320 46.168 C 168.320 45.169,168.770 45.188,145.271 45.188 C 121.578 45.188,122.551 45.148,122.941 46.109 C 123.976 48.663,123.931 53.012,122.838 55.947 C 122.422 57.066,121.145 59.294,120.921 59.294 C 120.822 59.295,120.741 59.433,120.741 59.603 C 120.741 59.991,118.554 62.164,118.163 62.164 C 118.003 62.164,117.872 62.244,117.872 62.343 C 117.871 62.849,114.463 64.415,112.493 64.815 C 111.835 64.948,111.001 65.118,110.640 65.192 L 109.982 65.326 109.982 84.529 L 109.982 103.732 110.520 103.809 C 111.015 103.879,111.058 104.010,111.058 105.439 L 111.058 106.993 109.085 107.063 L 107.113 107.132 107.113 105.463 L 107.113 103.795 108.010 103.720 L 108.906 103.646 108.906 84.529 L 108.906 65.411 108.069 65.209 C 107.609 65.097,106.964 64.953,106.635 64.888 C 105.402 64.646,103.394 63.966,103.030 63.668 C 102.822 63.498,102.526 63.359,102.372 63.359 C 102.218 63.359,102.092 63.252,102.092 63.120 C 102.092 62.989,101.951 62.881,101.780 62.881 C 101.102 62.881,97.549 59.465,97.549 58.813 C 97.549 58.702,97.415 58.465,97.250 58.286 C 95.205 56.061,94.312 48.148,95.892 46.245 C 96.800 45.151,97.852 45.188,66.236 45.188 L 36.581 45.188 36.581 68.712 M172.248 45.371 C 172.107 45.468,171.918 45.745,171.828 45.988 C 171.739 46.231,171.449 46.486,171.186 46.555 C 170.442 46.749,170.457 46.076,170.526 76.270 L 170.592 104.842 171.092 104.913 C 173.190 105.213,174.264 109.248,172.656 110.788 L 171.971 111.444 172.656 112.129 C 173.691 113.164,173.680 115.823,172.637 116.865 L 171.934 117.569 172.637 118.244 C 173.698 119.259,173.688 121.804,172.620 122.897 L 171.899 123.635 172.620 124.241 C 174.277 125.636,173.196 129.727,171.070 130.106 C 170.595 130.191,170.591 130.404,170.531 162.172 L 170.470 194.152 171.043 194.412 C 171.357 194.556,171.732 194.930,171.875 195.245 L 172.136 195.816 230.692 195.816 L 289.249 195.816 289.398 195.222 C 289.490 194.855,289.775 194.571,290.141 194.479 L 290.735 194.330 290.735 158.492 L 290.735 122.654 286.296 122.654 C 281.816 122.654,281.158 122.547,280.522 121.718 C 280.070 121.130,280.161 120.534,280.802 119.893 L 281.389 119.307 291.639 119.307 L 301.889 119.307 302.409 119.860 C 303.241 120.746,303.057 121.734,301.955 122.304 C 301.428 122.577,300.225 122.654,296.485 122.654 L 291.692 122.654 291.692 158.403 L 291.692 194.153 292.263 194.413 C 292.577 194.556,292.951 194.930,293.095 195.245 L 293.355 195.816 316.313 195.816 L 339.271 195.816 339.271 148.117 L 339.271 100.418 337.161 100.418 C 333.721 100.418,334.011 101.634,334.011 87.193 C 334.011 72.891,333.713 74.178,337.050 74.068 L 339.151 73.999 339.151 59.653 L 339.151 45.308 316.677 45.242 C 292.780 45.172,293.252 45.159,293.053 45.921 C 292.981 46.195,292.698 46.478,292.424 46.550 C 291.657 46.750,291.676 45.802,291.746 79.737 L 291.811 111.775 296.822 111.840 C 302.192 111.909,302.929 112.092,302.929 113.351 C 302.929 115.202,302.686 115.242,291.568 115.242 C 281.641 115.242,281.212 115.206,280.522 114.306 C 279.201 112.586,280.431 112.032,285.872 111.895 L 290.616 111.775 290.676 79.313 L 290.737 46.851 290.159 46.631 C 289.841 46.510,289.510 46.190,289.425 45.920 C 289.183 45.160,289.693 45.173,263.001 45.242 L 237.776 45.308 237.709 48.125 C 237.643 50.872,237.081 52.539,236.493 51.732 C 236.410 51.618,235.912 51.324,235.386 51.079 C 234.860 50.835,234.268 50.538,234.071 50.420 C 233.873 50.303,233.551 50.145,233.353 50.071 C 233.156 49.996,232.833 49.835,232.636 49.712 C 232.439 49.589,232.116 49.428,231.919 49.354 C 231.721 49.279,231.399 49.118,231.201 48.995 C 231.004 48.872,230.681 48.708,230.484 48.630 C 229.551 48.263,228.444 47.681,228.372 47.519 C 228.328 47.421,228.099 47.340,227.864 47.340 C 227.628 47.340,227.301 47.179,227.137 46.981 C 226.222 45.879,225.702 46.514,225.702 48.733 C 225.702 50.631,225.647 50.895,225.148 51.364 L 224.593 51.886 224.080 51.340 C 223.627 50.858,223.559 50.473,223.499 48.051 L 223.431 45.308 197.968 45.251 C 183.963 45.220,172.389 45.274,172.248 45.371 M227.858 45.362 C 227.865 45.667,235.370 49.239,235.576 49.036 C 235.681 48.932,235.735 48.051,235.696 47.078 L 235.625 45.308 231.739 45.242 C 229.603 45.206,227.856 45.260,227.858 45.362 M120.466 46.597 C 120.249 46.808,119.622 47.842,119.073 48.894 C 117.757 51.413,117.551 51.621,116.932 51.061 C 116.460 50.633,116.359 50.646,115.288 51.264 C 114.530 51.701,115.053 51.883,117.066 51.883 C 119.489 51.883,120.577 53.323,119.152 54.644 C 118.530 55.221,118.451 55.230,114.251 55.230 L 109.982 55.230 109.982 59.312 L 109.982 63.394 111.357 63.241 C 112.113 63.157,112.947 62.994,113.210 62.879 C 116.166 61.583,116.653 61.283,118.147 59.841 C 119.304 58.724,119.998 57.802,120.521 56.687 C 120.928 55.820,121.386 54.852,121.539 54.536 C 121.892 53.806,121.897 47.376,121.544 47.144 C 121.409 47.055,121.200 46.808,121.079 46.597 C 120.878 46.243,120.829 46.243,120.466 46.597 M97.490 46.974 C 96.945 47.723,96.874 53.584,97.395 54.673 C 97.574 55.045,97.897 55.708,98.113 56.146 C 98.329 56.584,98.506 57.046,98.506 57.172 C 98.506 57.582,101.932 61.207,102.319 61.207 C 102.435 61.207,102.566 61.288,102.610 61.387 C 102.726 61.648,104.829 62.642,105.266 62.642 C 105.471 62.642,105.674 62.738,105.718 62.856 C 105.762 62.974,106.497 63.108,107.352 63.155 L 108.906 63.240 108.906 59.295 L 108.906 55.350 104.163 55.230 L 99.419 55.111 98.843 54.440 C 97.672 53.077,98.828 51.883,101.317 51.883 C 103.616 51.883,103.610 51.856,100.729 48.966 C 97.840 46.068,98.053 46.199,97.490 46.974 M105.278 74.241 L 106.851 75.798 106.922 74.303 C 106.979 73.103,107.076 72.792,107.412 72.728 C 107.900 72.635,108.062 77.294,107.581 77.591 C 107.444 77.676,106.388 76.822,105.234 75.693 C 102.898 73.407,102.942 73.429,102.318 74.178 C 101.767 74.838,101.748 75.170,102.217 75.886 C 102.728 76.665,102.192 77.150,101.418 76.608 C 100.612 76.044,100.685 74.310,101.554 73.397 C 102.660 72.236,103.430 72.410,105.278 74.241 M361.350 74.294 C 364.034 75.768,364.542 78.417,362.543 80.514 C 362.386 80.678,361.730 80.813,361.085 80.813 C 360.440 80.813,359.848 80.877,359.769 80.956 C 359.634 81.091,361.049 83.026,362.323 84.449 C 362.641 84.805,362.972 85.316,363.057 85.585 C 363.142 85.853,363.312 86.073,363.435 86.073 C 363.730 86.073,363.722 86.722,363.425 86.906 C 363.297 86.985,363.002 86.817,362.768 86.532 C 362.534 86.247,362.172 85.839,361.963 85.625 C 361.754 85.411,361.137 84.625,360.593 83.879 C 360.049 83.132,359.488 82.449,359.345 82.361 C 359.202 82.273,358.990 81.948,358.872 81.639 C 358.725 81.252,358.397 81.029,357.813 80.919 C 356.310 80.637,356.268 80.716,356.194 83.971 C 356.154 85.726,356.030 86.910,355.888 86.910 C 355.644 86.910,355.405 74.785,355.637 74.182 C 355.828 73.683,360.401 73.773,361.350 74.294 M356.349 75.152 C 356.282 75.327,356.258 76.483,356.297 77.723 L 356.366 79.976 358.942 80.044 L 361.518 80.112 362.247 79.327 C 363.494 77.984,363.154 76.722,361.098 75.068 C 360.637 74.697,356.495 74.771,356.349 75.152 M336.194 76.352 C 335.993 76.594,335.935 79.580,335.981 87.415 L 336.043 98.147 340.050 98.213 L 344.057 98.278 343.995 87.214 L 343.933 76.151 340.202 76.085 C 337.247 76.033,336.413 76.088,336.194 76.352 M94.917 77.582 C 95.301 78.045,95.014 78.150,93.126 78.237 L 91.692 78.302 91.572 84.220 C 91.497 87.927,91.363 90.138,91.213 90.138 C 91.064 90.138,90.930 87.927,90.855 84.220 L 90.735 78.302 88.942 78.231 C 87.094 78.157,86.382 77.870,87.031 77.459 C 87.663 77.060,94.573 77.168,94.917 77.582 M372.029 78.545 C 372.738 79.299,372.346 79.981,371.595 79.301 C 370.589 78.391,367.723 79.299,367.723 80.527 C 367.723 81.182,369.099 81.984,370.342 82.054 C 373.992 82.260,373.889 86.794,370.231 86.983 C 368.630 87.066,366.949 86.454,367.072 85.834 C 367.146 85.455,368.020 85.473,368.161 85.856 C 368.532 86.866,372.265 85.650,372.265 84.519 C 372.265 83.769,371.138 82.965,370.086 82.965 C 369.397 82.965,368.812 82.824,368.594 82.606 C 368.396 82.409,368.128 82.247,367.996 82.247 C 367.734 82.247,367.005 80.917,367.005 80.437 C 367.005 78.492,370.680 77.108,372.029 78.545 M32.277 94.849 C 30.101 95.831,29.213 96.404,28.129 97.530 C 26.162 99.571,25.207 101.637,24.970 104.363 C 24.782 106.523,25.524 110.460,26.119 110.460 C 26.219 110.460,26.300 110.611,26.300 110.796 C 26.300 110.981,26.677 111.583,27.137 112.134 C 27.597 112.685,27.974 113.233,27.974 113.352 C 27.974 113.471,28.116 113.568,28.291 113.568 C 28.465 113.568,28.864 113.841,29.176 114.174 C 29.707 114.739,30.308 115.069,32.584 116.048 C 34.524 116.883,40.077 116.385,41.185 115.277 C 41.335 115.126,41.604 115.003,41.783 115.003 C 41.961 115.003,42.397 114.696,42.751 114.322 C 43.105 113.947,43.583 113.574,43.814 113.492 C 44.044 113.411,44.232 113.201,44.232 113.027 C 44.232 112.852,44.550 112.445,44.939 112.123 C 45.328 111.800,45.651 111.361,45.656 111.147 C 45.662 110.933,45.828 110.624,46.025 110.460 C 46.222 110.297,46.384 109.928,46.384 109.642 C 46.384 109.356,46.518 108.987,46.683 108.823 C 47.460 108.046,46.918 101.516,45.983 100.400 C 45.809 100.192,45.666 99.858,45.666 99.658 C 45.666 99.458,45.344 99.047,44.949 98.745 C 44.555 98.442,44.232 98.054,44.232 97.881 C 44.232 97.708,44.000 97.442,43.716 97.290 C 43.432 97.138,42.974 96.784,42.699 96.504 C 40.847 94.617,36.581 93.754,36.581 95.265 L 36.581 96.090 37.834 96.162 C 39.744 96.272,39.814 97.071,37.914 97.071 L 36.581 97.071 36.581 98.013 C 36.581 98.532,36.469 99.025,36.331 99.110 C 35.899 99.377,35.386 98.718,35.386 97.893 C 35.386 97.149,35.330 97.095,34.489 97.026 C 33.884 96.976,33.592 96.835,33.592 96.593 C 33.592 96.351,33.884 96.210,34.489 96.160 C 35.337 96.090,35.386 96.041,35.386 95.264 L 35.386 94.441 34.250 94.456 C 33.625 94.465,32.738 94.642,32.277 94.849 M60.012 95.267 C 60.012 95.530,59.618 95.632,58.398 95.685 L 56.784 95.756 56.710 96.653 L 56.636 97.549 57.624 97.549 C 58.978 97.549,58.921 98.347,57.559 98.460 L 56.665 98.535 56.665 99.705 L 56.665 100.875 58.279 100.945 C 59.522 101.000,59.892 101.098,59.892 101.375 C 59.892 101.837,56.566 102.028,56.045 101.596 C 55.691 101.302,55.531 95.415,55.868 95.079 C 56.217 94.730,60.012 94.902,60.012 95.267 M42.513 104.065 C 42.588 104.455,42.157 104.483,36.134 104.483 C 29.893 104.483,29.136 104.400,29.530 103.762 C 29.829 103.279,42.418 103.572,42.513 104.065 M107.830 105.452 L 107.830 106.421 109.085 106.348 C 110.387 106.273,110.985 105.391,110.240 104.645 C 110.056 104.461,109.982 104.529,109.982 104.884 C 109.982 105.513,109.320 106.134,109.171 105.646 C 109.116 105.466,109.011 105.132,108.937 104.901 C 108.646 104.002,107.830 104.408,107.830 105.452 M32.979 106.381 C 33.992 107.022,31.192 107.746,29.786 107.207 C 29.335 107.034,29.286 106.485,29.707 106.315 C 30.225 106.106,32.621 106.154,32.979 106.381 M37.741 106.473 C 38.168 106.987,37.572 107.352,36.308 107.352 C 35.141 107.352,34.766 107.109,34.998 106.504 C 35.172 106.051,37.370 106.026,37.741 106.473 M42.439 106.754 C 42.439 107.156,42.255 107.244,41.284 107.306 C 39.966 107.390,39.271 107.019,39.725 106.472 C 40.192 105.909,42.439 106.142,42.439 106.754 M186.675 116.492 L 186.739 122.399 189.305 122.467 C 191.396 122.522,191.871 122.601,191.871 122.893 C 191.871 123.193,191.379 123.252,188.882 123.252 L 185.894 123.252 185.830 116.838 C 185.770 110.816,185.792 110.429,186.189 110.505 C 186.577 110.580,186.616 111.066,186.675 116.492 M270.196 110.955 C 270.939 111.484,270.992 111.604,270.688 112.083 C 270.536 112.322,270.257 112.256,269.436 111.787 C 267.716 110.804,266.915 110.998,264.908 112.882 C 263.564 114.144,263.209 116.473,263.900 119.493 C 264.523 122.213,267.779 123.266,270.009 121.468 C 270.489 121.081,270.953 121.465,270.831 122.148 C 270.469 124.160,264.771 123.343,263.651 121.119 C 261.626 117.096,262.391 113.200,265.631 111.045 C 266.780 110.280,269.182 110.233,270.196 110.955 M48.222 178.542 C 48.162 178.772,48.113 178.583,48.113 178.123 C 48.113 177.663,48.162 177.475,48.222 177.705 C 48.282 177.935,48.282 178.311,48.222 178.542 M109.430 178.542 C 109.369 178.772,109.320 178.583,109.320 178.123 C 109.320 177.663,109.369 177.475,109.430 177.705 C 109.490 177.935,109.490 178.311,109.430 178.542 M230.649 178.542 C 230.589 178.772,230.540 178.583,230.540 178.123 C 230.540 177.663,230.589 177.475,230.649 177.705 C 230.709 177.935,230.709 178.311,230.649 178.542 M351.868 178.542 C 351.808 178.772,351.759 178.583,351.759 178.123 C 351.759 177.663,351.808 177.475,351.868 177.705 C 351.928 177.935,351.928 178.311,351.868 178.542 " stroke="none" fill="#f4f4ec" fill-rule="evenodd"></path><path id="path1" d="M208.966 29.289 L 208.966 35.625 210.745 35.625 C 213.087 35.625,213.352 35.190,211.066 35.097 L 209.325 35.027 209.325 29.289 L 209.325 23.551 211.066 23.480 C 213.352 23.388,213.087 22.953,210.745 22.953 L 208.966 22.953 208.966 29.289 M216.458 29.647 C 216.458 30.634,216.500 31.037,216.552 30.544 C 216.604 30.051,216.604 29.244,216.552 28.751 C 216.500 28.258,216.458 28.661,216.458 29.647 M169.011 43.195 C 168.799 43.251,168.506 43.562,168.359 43.884 L 168.092 44.471 150.752 44.471 C 139.352 44.471,133.413 44.553,133.413 44.710 C 133.413 44.867,139.213 44.950,150.329 44.952 C 168.068 44.956,168.216 44.962,168.452 45.706 C 168.534 45.962,168.860 46.271,169.178 46.392 L 169.755 46.611 169.755 73.156 C 169.755 90.616,169.836 99.701,169.993 99.701 C 170.149 99.701,170.252 90.597,170.292 73.222 L 170.353 46.742 170.891 46.506 C 171.186 46.377,171.429 46.188,171.429 46.088 C 171.429 44.917,170.835 44.949,192.602 44.949 C 206.020 44.949,212.770 44.869,212.672 44.710 C 212.575 44.554,205.495 44.471,192.209 44.471 L 171.895 44.471 171.680 43.906 C 171.376 43.107,170.356 42.835,169.011 43.195 M290.231 43.195 C 290.019 43.251,289.725 43.562,289.578 43.884 L 289.311 44.471 268.997 44.471 C 255.712 44.471,248.632 44.554,248.536 44.710 C 248.438 44.869,255.129 44.950,268.426 44.952 C 289.383 44.956,289.434 44.958,289.672 45.706 C 289.753 45.962,290.080 46.271,290.397 46.392 L 290.974 46.611 290.974 73.156 C 290.974 90.616,291.056 99.701,291.212 99.701 C 291.369 99.701,291.471 90.597,291.511 73.222 L 291.572 46.742 292.110 46.506 C 292.406 46.377,292.648 46.188,292.648 46.088 C 292.648 45.988,292.863 45.690,293.126 45.427 C 293.601 44.952,337.925 44.631,339.132 45.094 C 339.470 45.224,339.510 46.522,339.510 57.288 C 339.510 65.233,339.592 69.337,339.751 69.337 C 339.911 69.337,339.971 65.167,339.930 56.964 L 339.868 44.591 316.505 44.530 L 293.142 44.469 292.859 43.932 C 292.404 43.067,291.576 42.835,290.231 43.195 M35.864 63.048 C 35.864 75.354,35.944 81.546,36.101 81.388 C 36.253 81.236,36.361 74.657,36.400 63.110 L 36.461 45.069 61.042 45.008 C 77.274 44.968,85.572 44.866,85.474 44.709 C 85.378 44.554,76.748 44.471,60.596 44.471 L 35.864 44.471 35.864 63.048 M355.819 80.634 C 355.848 84.085,355.905 85.625,355.947 84.056 C 356.038 80.638,356.132 80.466,357.791 80.673 C 359.159 80.844,358.999 80.847,360.909 80.623 C 362.176 80.474,361.980 80.440,359.235 80.335 L 356.127 80.215 356.127 77.466 L 356.127 74.716 358.518 74.583 L 360.909 74.450 358.338 74.404 L 355.768 74.357 355.819 80.634 M363.254 77.585 C 363.255 78.374,363.300 78.668,363.353 78.238 C 363.406 77.809,363.405 77.163,363.351 76.804 C 363.296 76.445,363.253 76.796,363.254 77.585 M88.942 77.929 L 90.974 78.063 91.100 84.160 L 91.226 90.257 91.283 84.399 C 91.349 77.641,91.242 77.995,93.252 77.883 C 94.103 77.836,93.025 77.796,90.855 77.795 C 88.029 77.794,87.486 77.832,88.942 77.929 M369.277 78.422 C 369.186 78.569,369.598 78.661,370.353 78.661 C 371.108 78.661,371.520 78.569,371.429 78.422 C 371.347 78.290,370.863 78.183,370.353 78.183 C 369.842 78.183,369.358 78.290,369.277 78.422 M109.265 92.194 C 109.265 100.139,109.185 103.750,109.005 103.930 C 108.818 104.117,108.818 104.235,109.005 104.351 C 109.148 104.439,109.265 104.795,109.265 105.143 C 109.265 105.578,109.342 105.697,109.512 105.527 C 109.843 105.195,109.832 81.284,109.500 80.953 C 109.346 80.798,109.265 84.665,109.265 92.194 M369.157 82.487 C 369.157 82.618,369.695 82.726,370.353 82.726 C 371.010 82.726,371.548 82.618,371.548 82.487 C 371.548 82.355,371.010 82.247,370.353 82.247 C 369.695 82.247,369.157 82.355,369.157 82.487 M368.559 86.551 C 368.641 86.683,369.346 86.790,370.128 86.790 C 370.915 86.790,371.548 86.684,371.548 86.551 C 371.548 86.416,370.866 86.312,369.980 86.312 C 368.995 86.312,368.467 86.401,368.559 86.551 M56.051 95.471 C 55.985 95.643,55.962 97.069,55.999 98.639 L 56.067 101.494 57.596 101.566 C 59.766 101.669,60.307 101.302,58.219 101.143 L 56.545 101.016 56.473 99.641 L 56.402 98.267 57.370 98.267 C 58.589 98.267,58.647 97.843,57.442 97.743 C 56.549 97.669,56.545 97.664,56.545 96.593 L 56.545 95.517 58.219 95.380 L 59.892 95.243 58.032 95.201 C 56.689 95.170,56.138 95.245,56.051 95.471 M110.400 104.163 C 110.583 104.237,110.699 104.743,110.699 105.459 L 110.699 106.635 109.165 106.635 C 108.162 106.635,107.589 106.531,107.510 106.336 C 107.438 106.157,107.382 106.206,107.371 106.455 C 107.355 106.818,107.590 106.874,109.145 106.874 L 110.938 106.874 110.938 105.439 C 110.938 104.225,110.874 104.008,110.520 104.024 C 110.270 104.035,110.222 104.091,110.400 104.163 M339.451 150.448 L 339.390 195.935 316.236 195.996 C 293.088 196.057,293.082 196.057,292.954 195.568 C 292.884 195.300,292.517 194.920,292.139 194.724 L 291.452 194.369 291.452 164.847 C 291.452 145.326,291.371 135.326,291.213 135.326 C 291.055 135.326,290.974 145.329,290.974 164.859 L 290.974 194.392 290.403 194.652 C 290.089 194.795,289.714 195.169,289.571 195.484 L 289.311 196.055 230.603 196.055 L 171.895 196.055 171.668 195.457 C 171.543 195.129,171.338 194.860,171.212 194.860 C 170.203 194.860,170.233 195.789,170.233 164.717 C 170.233 145.282,170.152 135.326,169.994 135.326 C 169.836 135.326,169.755 145.329,169.755 164.859 L 169.755 194.392 169.184 194.652 C 168.869 194.795,168.495 195.169,168.352 195.484 L 168.092 196.055 102.217 196.055 L 36.342 196.055 36.342 162.702 C 36.342 140.626,36.261 129.348,36.103 129.348 C 35.945 129.348,35.864 140.705,35.864 162.941 L 35.864 196.533 101.966 196.533 L 168.069 196.533 168.425 197.221 C 168.988 198.311,170.955 198.397,171.530 197.358 C 171.671 197.101,171.895 196.813,172.026 196.716 C 172.158 196.620,198.596 196.539,230.777 196.537 L 289.288 196.533 289.644 197.221 C 290.208 198.311,292.175 198.397,292.749 197.358 C 292.891 197.101,293.114 196.813,293.246 196.716 C 293.377 196.620,303.948 196.539,316.736 196.537 L 339.988 196.533 339.988 150.747 C 339.988 120.461,339.907 104.961,339.750 104.961 C 339.592 104.961,339.491 120.402,339.451 150.448 M186.065 116.856 L 186.013 123.132 188.896 123.132 C 190.758 123.132,191.727 123.047,191.632 122.893 C 191.549 122.758,190.394 122.654,188.988 122.654 C 187.615 122.654,186.469 122.627,186.442 122.594 C 186.415 122.561,186.331 119.845,186.255 116.557 L 186.116 110.580 186.065 116.856 M267.125 110.871 C 267.487 110.925,268.078 110.925,268.440 110.871 C 268.802 110.816,268.506 110.771,267.782 110.771 C 267.059 110.771,266.763 110.816,267.125 110.871 M262.765 116.751 C 262.763 117.457,262.854 117.843,263.001 117.753 C 263.305 117.565,263.305 116.430,263.001 115.959 C 262.833 115.700,262.768 115.920,262.765 116.751 M269.934 122.056 C 269.690 122.350,269.707 122.415,270.025 122.415 C 270.238 122.415,270.412 122.253,270.412 122.056 C 270.412 121.859,270.372 121.698,270.322 121.698 C 270.273 121.698,270.098 121.859,269.934 122.056 M266.826 122.893 C 266.826 123.025,267.256 123.132,267.782 123.132 C 268.308 123.132,268.739 123.025,268.739 122.893 C 268.739 122.762,268.308 122.654,267.782 122.654 C 267.256 122.654,266.826 122.762,266.826 122.893 " stroke="none" fill="#068e11" fill-rule="evenodd"></path><path id="path2" d="M90.251 36.759 C 90.905 36.809,91.559 36.950,91.705 37.070 C 91.872 37.209,92.140 37.162,92.428 36.943 C 92.841 36.631,92.693 36.600,90.974 36.632 C 89.615 36.657,89.406 36.694,90.251 36.759 M127.127 37.004 C 126.745 37.426,126.739 37.494,127.075 37.623 C 127.391 37.744,127.442 38.154,127.385 40.103 L 127.316 42.439 126.420 42.513 C 125.926 42.554,125.523 42.688,125.523 42.812 C 125.523 43.114,128.802 43.101,128.990 42.797 C 129.074 42.662,128.874 42.558,128.530 42.558 C 127.772 42.558,127.692 42.248,127.614 39.006 C 127.557 36.605,127.542 36.543,127.127 37.004 M106.515 37.219 C 106.121 37.283,105.696 37.434,105.571 37.556 C 105.446 37.677,105.096 37.776,104.793 37.776 C 103.251 37.776,99.380 40.705,97.970 42.939 C 96.792 44.804,97.173 44.704,91.017 44.763 L 85.475 44.816 90.855 44.942 L 96.234 45.069 96.314 45.765 C 96.357 46.148,96.250 46.729,96.075 47.056 C 95.641 47.867,95.625 54.118,96.055 54.549 C 96.219 54.713,96.359 55.122,96.364 55.457 C 96.370 55.793,96.638 56.497,96.959 57.023 C 97.281 57.549,97.644 58.206,97.767 58.484 C 98.104 59.245,100.519 61.771,101.292 62.171 C 101.666 62.364,102.418 62.818,102.964 63.180 C 103.509 63.542,104.211 63.837,104.524 63.837 C 104.838 63.837,105.306 63.983,105.565 64.161 C 105.825 64.339,106.673 64.548,107.449 64.626 C 109.344 64.815,109.250 64.385,109.313 73.162 L 109.369 80.932 109.496 73.002 C 109.640 64.066,109.477 64.808,111.332 64.632 C 112.102 64.558,112.970 64.350,113.261 64.168 C 113.552 63.986,114.001 63.837,114.258 63.837 C 114.753 63.837,116.076 63.202,116.623 62.702 C 116.803 62.537,117.049 62.403,117.170 62.403 C 117.709 62.403,120.980 59.131,120.980 58.593 C 120.980 58.472,121.115 58.225,121.279 58.046 C 121.780 57.498,122.415 56.175,122.415 55.681 C 122.415 55.424,122.598 54.934,122.821 54.593 C 123.427 53.669,123.413 47.984,122.803 47.057 C 122.570 46.704,122.415 46.112,122.457 45.742 L 122.534 45.069 128.033 44.942 L 133.533 44.816 127.899 44.763 L 122.265 44.710 121.671 44.053 C 121.344 43.691,120.924 43.089,120.737 42.715 C 120.354 41.948,117.833 39.531,117.061 39.190 C 116.784 39.067,116.127 38.704,115.601 38.382 C 115.075 38.060,114.370 37.793,114.035 37.787 C 113.699 37.781,113.296 37.648,113.139 37.491 C 112.845 37.196,107.911 36.994,106.515 37.219 M112.531 38.210 C 116.308 38.970,122.450 44.542,120.323 45.277 C 120.093 45.357,119.582 45.632,119.187 45.890 C 118.793 46.147,117.986 46.603,117.394 46.903 C 115.687 47.767,115.104 48.259,115.573 48.438 C 115.824 48.535,115.959 48.871,115.959 49.398 C 115.959 50.054,116.052 50.209,116.445 50.209 C 116.712 50.209,116.993 50.371,117.068 50.568 C 117.309 51.196,117.512 50.972,118.564 48.916 C 119.130 47.811,119.913 46.600,120.305 46.227 L 121.018 45.547 121.477 46.111 C 121.730 46.422,121.937 46.990,121.937 47.374 C 121.937 47.758,122.098 48.459,122.295 48.931 C 122.493 49.403,122.654 50.247,122.654 50.806 C 122.654 51.365,122.493 52.280,122.295 52.839 C 122.098 53.398,121.937 54.064,121.937 54.319 C 121.937 57.206,115.792 63.359,112.909 63.359 C 112.661 63.359,111.946 63.534,111.321 63.747 C 110.453 64.042,110.117 64.068,109.903 63.855 C 109.534 63.487,109.377 56.072,109.720 55.172 L 109.966 54.523 114.457 54.458 L 118.948 54.393 119.022 53.497 L 119.096 52.600 117.069 52.600 C 114.863 52.600,114.286 52.476,114.286 51.999 C 114.286 51.615,113.459 51.798,113.069 52.267 C 112.323 53.166,104.253 52.541,104.245 51.584 C 104.245 51.485,104.129 51.405,103.989 51.405 C 103.844 51.405,103.798 51.608,103.883 51.875 C 104.068 52.460,103.641 52.577,101.016 52.659 L 99.103 52.720 99.103 53.556 L 99.103 54.393 103.867 54.458 C 109.789 54.539,109.265 54.082,109.265 59.159 C 109.265 64.108,109.169 64.377,107.620 63.757 C 107.073 63.538,106.354 63.359,106.022 63.359 C 103.828 63.359,99.139 59.537,97.711 56.584 C 96.053 53.155,96.110 46.319,97.802 45.782 C 98.140 45.674,98.219 45.483,98.124 44.996 C 98.043 44.583,98.154 44.147,98.431 43.783 C 98.868 43.208,101.528 40.517,102.151 40.017 C 102.830 39.473,105.730 38.255,106.353 38.251 C 106.705 38.249,107.155 38.139,107.352 38.006 C 107.765 37.728,110.718 37.844,112.531 38.210 M224.268 41.329 C 224.268 44.880,224.837 44.563,218.171 44.721 L 212.672 44.851 218.201 44.900 C 224.731 44.958,224.229 44.683,224.319 48.252 C 224.408 51.749,224.843 51.907,224.933 48.476 C 225.000 45.939,225.009 45.906,225.577 45.906 C 225.893 45.906,226.219 46.013,226.300 46.145 C 226.381 46.276,226.643 46.384,226.883 46.384 C 227.122 46.384,227.451 46.545,227.615 46.742 C 227.779 46.940,228.106 47.101,228.342 47.101 C 228.578 47.101,228.807 47.182,228.850 47.280 C 228.919 47.436,231.358 48.691,232.397 49.106 C 232.750 49.248,233.005 49.384,233.951 49.934 C 234.214 50.087,234.591 50.274,234.788 50.349 C 234.985 50.424,235.432 50.639,235.781 50.826 C 236.903 51.427,236.940 51.347,236.940 48.305 C 236.940 44.705,236.468 44.962,243.200 44.900 L 248.536 44.851 243.036 44.721 C 236.373 44.563,236.940 44.877,236.940 41.349 C 236.940 37.855,237.537 37.878,231.066 41.123 C 224.531 44.398,225.018 44.392,224.933 41.203 C 224.831 37.357,224.268 37.464,224.268 41.329 M90.749 39.108 C 90.316 39.428,90.341 39.450,91.138 39.450 C 92.220 39.450,92.585 39.893,92.498 41.101 C 92.459 41.628,92.505 42.136,92.598 42.229 C 92.691 42.323,92.767 41.682,92.767 40.805 C 92.767 39.301,92.736 39.211,92.218 39.211 C 91.915 39.211,91.565 39.111,91.441 38.988 C 91.300 38.850,91.037 38.895,90.749 39.108 M236.316 40.067 C 236.396 40.275,236.461 41.300,236.461 42.345 C 236.461 44.776,236.482 44.767,231.276 44.666 C 226.000 44.563,225.997 44.521,231.133 41.908 C 235.616 39.626,236.083 39.460,236.316 40.067 M89.181 42.738 C 89.181 42.943,89.628 43.036,90.616 43.036 C 92.480 43.036,92.480 42.625,90.615 42.520 C 89.583 42.461,89.180 42.523,89.181 42.738 M236.068 45.253 C 236.725 45.734,236.548 49.584,235.864 49.675 C 235.064 49.781,226.845 45.576,227.186 45.235 C 227.600 44.821,235.499 44.837,236.068 45.253 M339.510 71.799 C 339.510 74.846,339.519 74.836,336.830 74.836 L 334.724 74.836 334.786 87.209 L 334.848 99.582 337.119 99.701 L 339.390 99.821 339.458 102.391 C 339.496 103.805,339.626 104.961,339.749 104.961 C 339.872 104.961,340.002 103.805,340.040 102.391 L 340.108 99.821 342.738 99.701 L 345.368 99.582 345.368 87.268 L 345.368 74.955 342.990 74.886 C 339.936 74.798,339.988 74.851,339.988 71.818 C 339.988 70.323,339.893 69.337,339.749 69.337 C 339.605 69.337,339.510 70.317,339.510 71.799 M102.570 73.162 C 102.570 73.293,102.725 73.401,102.915 73.401 C 103.104 73.401,103.326 73.293,103.407 73.162 C 103.488 73.030,103.333 72.923,103.063 72.923 C 102.792 72.923,102.570 73.030,102.570 73.162 M107.400 73.999 C 107.372 74.656,107.190 75.499,106.995 75.872 C 106.682 76.474,106.683 76.592,107.008 76.917 C 107.558 77.467,107.618 77.240,107.531 74.925 C 107.486 73.758,107.428 73.341,107.400 73.999 M101.136 75.075 C 101.136 75.469,101.243 75.792,101.375 75.792 C 101.506 75.792,101.614 75.469,101.614 75.075 C 101.614 74.680,101.506 74.357,101.375 74.357 C 101.243 74.357,101.136 74.680,101.136 75.075 M344.483 75.840 C 344.972 76.329,344.887 98.115,344.394 98.608 C 343.910 99.092,336.207 99.171,335.732 98.697 C 335.319 98.284,335.319 76.253,335.732 75.840 C 336.135 75.437,344.080 75.437,344.483 75.840 M35.913 86.922 C 35.857 93.190,35.917 93.007,33.932 93.007 C 33.017 93.007,32.478 93.123,32.277 93.365 C 32.114 93.562,31.812 93.724,31.606 93.724 C 30.070 93.724,25.881 97.379,24.894 99.582 C 24.599 100.239,24.178 101.141,23.959 101.585 C 23.397 102.726,23.405 108.163,23.969 109.312 C 24.183 109.746,24.592 110.619,24.879 111.252 C 25.646 112.943,28.484 115.747,30.245 116.552 C 31.034 116.913,31.845 117.290,32.048 117.391 C 32.250 117.492,33.111 117.654,33.961 117.752 C 35.962 117.982,35.848 117.621,35.909 123.969 L 35.962 129.468 36.092 123.969 C 36.242 117.631,36.131 117.985,38.037 117.769 C 38.844 117.678,39.681 117.514,39.896 117.405 C 40.111 117.297,40.932 116.911,41.721 116.547 C 44.425 115.303,46.281 113.140,48.153 109.049 C 48.502 108.287,48.499 101.890,48.150 101.662 C 48.008 101.570,47.816 101.185,47.723 100.806 C 47.480 99.811,46.159 97.853,44.802 96.473 C 43.521 95.172,43.214 94.952,41.602 94.188 C 41.010 93.908,40.221 93.527,39.849 93.342 C 39.477 93.158,38.596 93.007,37.891 93.007 C 36.183 93.007,36.241 93.205,36.092 86.910 L 35.962 81.411 35.913 86.922 M39.091 94.099 C 39.617 94.186,40.209 94.388,40.406 94.548 C 40.604 94.708,41.157 95.018,41.635 95.237 C 42.114 95.455,42.760 95.902,43.070 96.229 C 43.380 96.556,43.765 96.826,43.925 96.828 C 44.084 96.830,44.342 97.074,44.498 97.370 C 44.653 97.666,45.090 98.264,45.468 98.700 C 47.673 101.238,48.401 106.856,46.889 109.671 C 46.762 109.908,46.597 110.263,46.522 110.460 C 46.103 111.569,44.711 113.294,43.255 114.508 C 40.295 116.975,34.539 117.847,31.680 116.260 C 31.417 116.114,31.040 115.933,30.843 115.859 C 30.259 115.638,29.567 115.159,29.003 114.585 C 28.712 114.289,28.364 114.047,28.230 114.047 C 28.095 114.047,27.797 113.751,27.567 113.389 C 27.337 113.027,26.970 112.568,26.752 112.368 C 23.703 109.583,23.784 101.192,26.887 98.276 C 27.222 97.962,27.496 97.560,27.496 97.382 C 27.496 97.205,27.738 96.965,28.033 96.849 C 28.329 96.733,28.800 96.422,29.080 96.156 C 29.859 95.416,32.269 94.202,32.969 94.198 C 33.312 94.196,33.754 94.085,33.951 93.950 C 34.310 93.705,37.222 93.789,39.091 94.099 M35.848 95.158 C 35.747 96.207,35.722 96.236,34.848 96.309 C 34.354 96.349,33.951 96.477,33.951 96.593 C 33.951 96.709,34.354 96.837,34.848 96.877 C 35.693 96.947,35.752 97.006,35.890 97.908 C 35.991 98.577,36.045 98.673,36.069 98.226 C 36.136 96.971,36.302 96.832,37.730 96.832 C 39.382 96.832,39.133 96.415,37.418 96.308 L 36.222 96.234 36.087 95.158 L 35.952 94.082 35.848 95.158 M169.924 99.956 C 169.419 100.969,169.847 105.555,170.455 105.641 C 170.774 105.686,171.285 105.887,171.590 106.087 C 171.896 106.287,172.146 106.380,172.146 106.294 C 172.146 105.979,171.297 105.250,170.831 105.164 C 170.394 105.083,170.342 104.837,170.231 102.329 C 170.163 100.773,170.030 99.744,169.924 99.956 M291.155 99.940 C 291.057 100.137,290.949 102.989,290.916 106.276 L 290.855 112.253 285.953 112.390 C 283.258 112.466,281.038 112.546,281.020 112.570 C 280.836 112.815,280.804 113.573,280.960 113.996 L 281.156 114.525 291.572 114.525 L 301.988 114.525 302.184 113.996 C 302.340 113.573,302.309 112.820,302.124 112.569 C 302.106 112.545,299.725 112.464,296.832 112.389 L 291.572 112.253 291.452 105.918 C 291.387 102.433,291.253 99.743,291.155 99.940 M29.886 104.005 C 29.886 104.158,32.123 104.244,36.117 104.244 C 40.210 104.244,42.297 104.162,42.200 104.005 C 42.107 103.856,39.766 103.766,35.969 103.766 C 32.073 103.766,29.886 103.852,29.886 104.005 M30.544 106.808 C 30.971 106.861,31.671 106.861,32.098 106.808 C 32.525 106.755,32.176 106.711,31.321 106.711 C 30.466 106.711,30.117 106.755,30.544 106.808 M35.684 106.806 C 36.046 106.861,36.638 106.861,36.999 106.806 C 37.361 106.751,37.065 106.706,36.342 106.706 C 35.619 106.706,35.323 106.751,35.684 106.806 M40.466 106.806 C 40.828 106.861,41.420 106.861,41.781 106.806 C 42.143 106.751,41.847 106.706,41.124 106.706 C 40.400 106.706,40.105 106.751,40.466 106.806 M172.587 108.106 C 172.677 109.691,171.646 111.178,170.459 111.178 C 170.203 111.178,169.994 111.285,169.994 111.417 C 169.994 111.548,170.228 111.656,170.513 111.656 C 170.799 111.656,171.230 111.834,171.471 112.053 C 171.712 112.271,171.990 112.364,172.088 112.259 C 172.185 112.154,172.131 112.020,171.967 111.962 C 171.503 111.796,171.611 111.309,172.265 110.602 C 172.854 109.967,173.206 106.636,172.684 106.634 C 172.585 106.634,172.542 107.296,172.587 108.106 M172.672 114.068 C 172.620 115.781,171.692 117.063,170.240 117.425 L 169.635 117.576 170.253 117.605 C 173.090 117.735,173.256 123.371,170.422 123.371 C 170.187 123.371,169.994 123.479,169.994 123.610 C 169.994 123.742,170.252 123.849,170.567 123.849 C 171.561 123.849,172.624 125.321,172.624 126.698 C 172.624 127.946,171.248 129.588,170.202 129.588 C 169.791 129.588,169.755 129.810,169.755 132.323 C 169.755 135.944,170.195 136.214,170.285 132.648 C 170.347 130.166,170.391 129.945,170.831 129.869 C 172.667 129.550,173.671 125.770,172.265 124.468 C 171.937 124.163,171.668 123.777,171.668 123.610 C 171.668 123.443,171.937 123.057,172.265 122.753 C 172.796 122.261,172.863 122.005,172.863 120.488 C 172.863 118.948,172.803 118.731,172.265 118.308 C 171.515 117.717,171.516 117.470,172.275 116.766 C 172.843 116.240,172.878 116.079,172.802 114.348 L 172.720 112.493 172.672 114.068 M281.375 119.945 C 280.902 120.071,280.706 120.692,280.933 121.343 C 281.090 121.789,281.384 121.824,285.977 121.937 L 290.855 122.056 290.918 128.691 C 290.958 132.841,291.070 135.326,291.217 135.326 C 291.366 135.326,291.452 132.993,291.452 129.009 C 291.452 125.535,291.518 122.523,291.598 122.315 C 291.724 121.986,292.415 121.937,296.865 121.937 C 301.934 121.937,301.990 121.931,302.184 121.408 C 302.460 120.662,302.254 120.091,301.652 119.930 C 301.061 119.771,281.975 119.786,281.375 119.945 " stroke="none" fill="#880807" fill-rule="evenodd"></path><path id="path3" d="M208.835 23.016 C 208.771 23.183,208.747 26.115,208.782 29.532 L 208.846 35.744 210.640 35.819 C 212.547 35.898,215.271 34.883,215.607 33.968 C 215.683 33.761,215.807 33.538,215.882 33.473 C 218.288 31.370,216.531 24.693,213.150 23.088 C 212.161 22.619,209.007 22.567,208.835 23.016 M212.665 23.181 C 212.749 23.316,212.094 23.439,211.066 23.480 L 209.325 23.551 209.325 29.289 L 209.325 35.027 211.066 35.097 C 213.352 35.190,213.087 35.625,210.745 35.625 L 208.966 35.625 208.966 29.289 L 208.966 22.953 210.745 22.953 C 211.723 22.953,212.588 23.056,212.665 23.181 M214.101 24.990 C 215.071 25.960,215.421 26.488,215.421 26.977 C 215.421 27.343,215.579 27.852,215.772 28.107 C 215.966 28.363,216.123 29.056,216.123 29.647 C 216.123 30.239,215.966 30.932,215.772 31.187 C 215.579 31.443,215.421 31.934,215.421 32.278 C 215.421 33.622,213.105 34.970,210.984 34.861 L 209.564 34.788 209.499 29.533 C 209.421 23.210,209.286 23.670,211.225 23.670 L 212.781 23.670 214.101 24.990 M216.552 30.544 C 216.500 31.037,216.458 30.634,216.458 29.647 C 216.458 28.661,216.500 28.258,216.552 28.751 C 216.604 29.244,216.604 30.051,216.552 30.544 M88.996 36.384 C 88.492 36.888,89.146 37.298,90.452 37.298 C 91.454 37.298,91.601 37.350,91.302 37.597 C 89.962 38.706,89.911 39.928,91.206 39.928 C 92.161 39.928,92.557 41.835,91.672 42.174 C 90.989 42.436,89.963 42.326,89.657 41.958 C 89.260 41.480,88.650 41.951,88.751 42.657 C 88.850 43.350,91.845 43.535,92.557 42.891 C 93.351 42.173,93.214 38.972,92.389 38.972 C 92.049 38.972,91.811 38.891,91.859 38.793 C 92.423 37.634,92.636 37.298,92.806 37.298 C 93.168 37.298,93.016 36.397,92.628 36.248 C 91.962 35.992,89.287 36.093,88.996 36.384 M92.667 36.612 C 92.759 36.761,92.658 36.982,92.442 37.103 C 92.227 37.223,92.050 37.520,92.050 37.763 C 92.050 38.005,91.877 38.270,91.665 38.351 C 91.157 38.546,91.663 39.211,92.319 39.211 C 92.937 39.211,92.980 41.928,92.372 42.599 C 91.845 43.181,89.242 43.235,89.025 42.668 C 88.835 42.173,89.120 41.923,89.472 42.275 C 89.777 42.580,90.876 42.642,91.763 42.405 C 92.258 42.272,92.305 42.137,92.241 41.033 L 92.170 39.809 91.273 39.735 C 90.311 39.655,90.164 39.446,90.735 38.972 C 90.932 38.808,91.094 38.531,91.094 38.357 C 91.094 38.182,91.270 37.941,91.486 37.820 C 92.158 37.444,91.596 37.059,90.377 37.059 C 89.272 37.059,88.768 36.835,89.108 36.495 C 89.378 36.224,92.491 36.327,92.667 36.612 M107.591 36.571 C 107.394 36.704,106.960 36.814,106.627 36.816 C 103.935 36.833,98.970 40.272,97.269 43.298 L 96.745 44.230 66.245 44.291 L 35.744 44.351 35.625 68.261 L 35.505 92.170 34.907 92.250 C 34.579 92.294,34.207 92.428,34.082 92.549 C 33.958 92.669,33.498 92.767,33.061 92.767 C 32.220 92.767,29.182 94.104,28.858 94.616 C 28.753 94.783,28.553 94.919,28.412 94.919 C 28.178 94.919,26.693 96.381,25.416 97.868 C 22.877 100.825,22.339 107.059,24.277 111.058 C 25.725 114.047,30.064 117.589,32.816 118.029 C 33.323 118.110,34.135 118.313,34.621 118.480 L 35.505 118.784 35.625 157.718 L 35.744 196.653 101.799 196.713 L 167.853 196.773 168.113 197.345 C 168.751 198.745,171.378 198.760,171.908 197.366 L 172.134 196.772 230.603 196.772 L 289.072 196.772 289.332 197.344 C 289.970 198.744,292.598 198.760,293.127 197.368 L 293.352 196.775 316.730 196.714 L 340.108 196.653 340.168 148.536 L 340.228 100.418 342.697 100.418 C 346.556 100.418,346.204 101.739,346.204 87.235 L 346.204 75.158 345.661 74.648 C 345.194 74.209,344.782 74.127,342.732 74.068 L 340.347 73.999 340.285 59.308 C 340.237 47.919,340.157 44.574,339.926 44.428 C 339.763 44.324,329.178 44.238,316.404 44.236 L 293.178 44.232 293.038 43.674 C 292.703 42.338,289.850 42.399,289.421 43.751 C 289.269 44.229,289.105 44.232,263.463 44.232 L 237.657 44.232 237.657 41.400 C 237.657 37.129,237.966 37.179,231.540 40.403 C 225.185 43.591,225.702 43.545,225.702 40.926 C 225.702 39.006,225.651 38.768,225.126 38.275 L 224.550 37.733 224.050 38.233 C 223.601 38.682,223.551 39.012,223.551 41.482 L 223.551 44.232 197.755 44.232 L 171.959 44.232 171.819 43.674 C 171.483 42.338,168.631 42.399,168.202 43.751 C 167.995 44.404,121.937 44.525,121.937 43.873 C 121.937 43.676,121.829 43.515,121.698 43.515 C 121.566 43.515,121.458 43.374,121.458 43.202 C 121.458 42.524,118.043 38.972,117.391 38.972 C 117.280 38.972,117.043 38.837,116.864 38.673 C 115.307 37.242,108.788 35.764,107.591 36.571 M126.144 37.457 C 125.540 38.071,125.045 38.666,125.045 38.780 C 125.045 39.267,125.825 39.236,126.366 38.727 C 127.113 38.025,127.245 38.331,127.149 40.550 L 127.077 42.200 126.121 42.319 C 125.483 42.399,125.164 42.558,125.164 42.797 C 125.164 43.377,129.191 43.318,129.303 42.738 C 129.363 42.427,129.226 42.319,128.768 42.319 L 128.153 42.319 128.153 39.464 C 128.153 37.894,128.072 36.559,127.974 36.498 C 127.875 36.436,127.848 37.748,127.914 39.412 C 128.029 42.327,128.053 42.442,128.571 42.515 C 128.867 42.557,129.109 42.692,129.109 42.814 C 129.109 43.115,125.590 43.099,125.403 42.797 C 125.316 42.656,125.590 42.558,126.077 42.558 C 127.291 42.558,127.500 42.146,127.401 39.952 C 127.297 37.680,127.163 37.490,126.264 38.351 C 125.871 38.728,125.512 38.908,125.427 38.772 C 125.346 38.640,125.522 38.330,125.820 38.084 C 126.515 37.507,127.560 36.342,127.382 36.342 C 127.306 36.342,126.749 36.844,126.144 37.457 M113.139 37.491 C 113.296 37.648,113.699 37.781,114.035 37.787 C 114.370 37.793,115.075 38.060,115.601 38.382 C 116.127 38.704,116.784 39.067,117.061 39.190 C 117.897 39.559,120.423 42.028,120.818 42.862 C 121.022 43.291,121.438 43.872,121.742 44.155 L 122.295 44.668 145.210 44.533 L 168.125 44.398 168.379 43.841 C 168.860 42.784,171.255 42.788,171.657 43.846 L 171.869 44.403 197.530 44.524 C 211.644 44.591,223.434 44.555,223.730 44.444 C 224.247 44.251,224.268 44.132,224.268 41.349 C 224.268 37.468,224.831 37.344,224.933 41.203 C 225.018 44.392,224.531 44.398,231.066 41.123 C 237.540 37.877,236.940 37.852,236.940 41.369 C 236.940 44.131,236.961 44.252,237.478 44.444 C 237.773 44.555,249.564 44.591,263.679 44.524 L 289.342 44.403 289.597 43.843 C 290.088 42.766,292.346 42.782,292.840 43.866 L 293.115 44.469 316.492 44.530 L 339.868 44.591 339.930 59.392 C 339.973 69.609,340.072 74.290,340.252 74.506 C 340.427 74.717,341.302 74.841,342.939 74.887 L 345.368 74.955 345.368 87.268 L 345.368 99.582 342.738 99.701 L 340.108 99.821 340.047 148.177 L 339.987 196.533 316.736 196.537 C 303.948 196.539,293.377 196.620,293.246 196.716 C 293.114 196.813,292.891 197.101,292.749 197.358 C 292.175 198.397,290.208 198.311,289.644 197.221 L 289.288 196.533 230.777 196.537 C 198.596 196.539,172.158 196.620,172.026 196.716 C 171.895 196.813,171.671 197.101,171.530 197.358 C 170.955 198.397,168.988 198.311,168.425 197.221 L 168.069 196.533 101.966 196.533 L 35.864 196.533 35.860 157.501 C 35.858 136.034,35.777 118.348,35.681 118.200 C 35.584 118.051,34.810 117.850,33.961 117.752 C 33.111 117.654,32.250 117.492,32.048 117.391 C 31.845 117.290,31.034 116.913,30.245 116.552 C 28.484 115.747,25.646 112.943,24.879 111.252 C 24.592 110.619,24.183 109.746,23.969 109.312 C 23.405 108.163,23.397 102.726,23.959 101.585 C 24.178 101.141,24.599 100.239,24.894 99.582 C 25.881 97.379,30.070 93.724,31.606 93.724 C 31.812 93.724,32.114 93.562,32.277 93.365 C 32.478 93.123,33.017 93.007,33.932 93.007 C 36.039 93.007,35.864 95.244,35.864 68.420 L 35.864 44.407 66.254 44.516 C 92.864 44.611,96.689 44.580,96.999 44.270 C 97.193 44.076,97.630 43.477,97.970 42.939 C 99.380 40.705,103.251 37.776,104.793 37.776 C 105.096 37.776,105.446 37.677,105.571 37.556 C 106.124 37.018,112.611 36.963,113.139 37.491 M107.352 38.006 C 107.155 38.139,106.705 38.249,106.353 38.251 C 105.730 38.255,102.830 39.473,102.151 40.017 C 101.528 40.517,98.868 43.208,98.431 43.783 C 98.154 44.147,98.043 44.583,98.124 44.996 C 98.219 45.483,98.140 45.674,97.802 45.782 C 96.110 46.319,96.053 53.155,97.711 56.584 C 99.139 59.537,103.828 63.359,106.022 63.359 C 106.354 63.359,107.073 63.538,107.620 63.757 C 109.169 64.377,109.265 64.108,109.265 59.159 C 109.265 54.082,109.789 54.539,103.867 54.458 L 99.103 54.393 99.103 53.556 L 99.103 52.720 101.016 52.659 C 103.641 52.577,104.068 52.460,103.883 51.875 C 103.798 51.608,103.844 51.405,103.989 51.405 C 104.129 51.405,104.245 51.485,104.245 51.584 C 104.253 52.541,112.323 53.166,113.069 52.267 C 113.459 51.798,114.286 51.615,114.286 51.999 C 114.286 52.476,114.863 52.600,117.069 52.600 L 119.096 52.600 119.022 53.497 L 118.948 54.393 114.457 54.458 L 109.966 54.523 109.720 55.172 C 109.377 56.072,109.534 63.487,109.903 63.855 C 110.117 64.068,110.453 64.042,111.321 63.747 C 111.946 63.534,112.661 63.359,112.909 63.359 C 115.792 63.359,121.937 57.206,121.937 54.319 C 121.937 54.064,122.098 53.398,122.295 52.839 C 122.493 52.280,122.654 51.365,122.654 50.806 C 122.654 50.247,122.493 49.403,122.295 48.931 C 122.098 48.459,121.937 47.758,121.937 47.374 C 121.937 46.990,121.730 46.422,121.477 46.111 L 121.018 45.547 120.305 46.227 C 119.913 46.600,119.130 47.811,118.564 48.916 C 117.512 50.972,117.309 51.196,117.068 50.568 C 116.993 50.371,116.712 50.209,116.445 50.209 C 116.052 50.209,115.959 50.054,115.959 49.398 C 115.959 48.871,115.824 48.535,115.573 48.438 C 115.104 48.259,115.687 47.767,117.394 46.903 C 117.986 46.603,118.793 46.147,119.187 45.890 C 119.582 45.632,120.093 45.357,120.323 45.277 C 122.450 44.542,116.308 38.970,112.531 38.210 C 110.718 37.844,107.765 37.728,107.352 38.006 M113.292 38.811 C 113.641 38.985,114.285 39.308,114.724 39.528 C 115.162 39.748,115.623 39.928,115.750 39.928 C 116.173 39.928,119.785 43.360,119.785 43.762 C 119.785 43.889,119.885 43.993,120.006 43.993 C 120.739 43.993,120.294 44.878,119.311 45.378 C 118.071 46.007,116.287 47.041,115.454 47.613 C 114.899 47.995,114.894 48.024,115.287 48.701 C 115.690 49.394,114.649 51.166,113.840 51.166 C 113.712 51.166,113.564 51.300,113.509 51.464 C 113.436 51.684,112.329 51.783,109.341 51.838 L 105.272 51.913 101.889 48.563 C 99.683 46.378,98.506 45.038,98.506 44.712 C 98.506 43.947,102.197 40.360,103.646 39.716 C 104.304 39.425,105.111 39.040,105.439 38.862 C 106.274 38.409,112.409 38.369,113.292 38.811 M231.133 41.908 C 225.997 44.521,226.000 44.563,231.276 44.666 C 236.482 44.767,236.461 44.776,236.461 42.345 C 236.461 39.055,236.701 39.074,231.133 41.908 M235.694 42.398 L 235.764 44.232 231.647 44.232 L 227.529 44.232 231.337 42.319 C 235.811 40.071,235.606 40.067,235.694 42.398 M36.472 45.247 C 36.275 45.874,36.170 91.956,36.365 92.469 C 36.542 92.936,36.741 93.007,37.871 93.007 C 38.587 93.007,39.477 93.158,39.849 93.342 C 40.221 93.527,41.010 93.908,41.602 94.188 C 43.214 94.952,43.521 95.172,44.802 96.473 C 46.159 97.853,47.480 99.811,47.723 100.806 C 47.816 101.185,48.008 101.570,48.150 101.662 C 48.504 101.893,48.502 108.291,48.148 109.049 C 48.000 109.365,47.580 110.269,47.215 111.058 C 46.280 113.076,43.916 115.466,41.882 116.448 C 41.005 116.872,40.111 117.305,39.896 117.411 C 39.681 117.517,38.838 117.678,38.024 117.771 C 36.815 117.907,36.512 118.030,36.370 118.443 C 36.274 118.721,36.240 136.297,36.294 157.501 L 36.393 196.055 102.242 196.055 L 168.092 196.055 168.352 195.484 C 168.495 195.169,168.869 194.795,169.184 194.652 L 169.755 194.392 169.768 164.799 C 169.775 148.523,169.770 133.942,169.756 132.397 C 169.732 129.776,169.761 129.588,170.190 129.588 C 171.247 129.588,172.624 127.953,172.624 126.698 C 172.624 125.321,171.561 123.849,170.567 123.849 C 170.252 123.849,169.994 123.742,169.994 123.610 C 169.994 123.479,170.187 123.371,170.422 123.371 C 173.256 123.371,173.090 117.735,170.253 117.605 L 169.635 117.576 170.240 117.425 C 171.669 117.068,172.596 115.800,172.686 114.077 L 172.769 112.493 172.816 114.357 C 172.859 116.069,172.814 116.267,172.265 116.775 C 171.516 117.469,171.516 117.718,172.265 118.308 C 173.160 119.011,173.160 121.924,172.265 122.753 C 171.515 123.448,171.515 123.772,172.265 124.468 C 173.671 125.770,172.667 129.549,170.831 129.869 C 170.356 129.952,170.352 130.166,170.287 161.749 C 170.218 195.317,170.201 194.502,170.965 194.745 C 171.235 194.830,171.555 195.160,171.675 195.478 L 171.895 196.055 230.603 196.055 L 289.311 196.055 289.571 195.484 C 289.714 195.169,290.089 194.795,290.404 194.652 L 290.976 194.391 290.915 158.224 L 290.855 122.056 285.977 121.937 C 280.732 121.808,280.536 121.752,280.872 120.468 C 281.041 119.823,281.545 119.791,291.572 119.791 C 302.872 119.791,302.786 119.778,302.184 121.408 C 301.990 121.931,301.934 121.937,296.865 121.937 C 292.415 121.937,291.724 121.986,291.598 122.315 C 291.518 122.523,291.452 138.820,291.452 158.531 L 291.452 194.369 292.139 194.724 C 292.517 194.920,292.884 195.300,292.954 195.568 C 293.082 196.057,293.088 196.057,316.236 195.996 L 339.390 195.935 339.390 147.878 L 339.390 99.821 337.119 99.701 L 334.848 99.582 334.786 87.209 L 334.724 74.836 336.830 74.836 C 338.149 74.836,339.043 74.728,339.223 74.549 C 339.718 74.054,339.629 45.285,339.132 45.094 C 337.925 44.631,293.601 44.952,293.126 45.427 C 292.863 45.690,292.648 45.988,292.648 46.088 C 292.648 46.188,292.406 46.377,292.110 46.506 L 291.572 46.742 291.572 79.498 L 291.572 112.253 296.832 112.389 C 299.725 112.464,302.106 112.545,302.124 112.569 C 302.309 112.820,302.340 113.573,302.184 113.996 L 301.988 114.525 291.572 114.525 L 281.156 114.525 280.960 113.996 C 280.804 113.573,280.836 112.815,281.020 112.570 C 281.038 112.546,283.258 112.466,285.953 112.390 L 290.855 112.253 290.915 79.433 L 290.976 46.612 290.398 46.392 C 290.080 46.271,289.753 45.962,289.672 45.706 C 289.590 45.450,289.285 45.176,288.994 45.098 C 288.012 44.835,237.899 44.931,237.402 45.197 C 236.984 45.420,236.940 45.721,236.940 48.305 C 236.940 51.625,236.994 51.583,234.549 50.174 C 234.351 50.060,234.029 49.906,233.831 49.832 C 233.634 49.757,233.311 49.596,233.114 49.473 C 232.917 49.350,232.594 49.185,232.397 49.106 C 231.358 48.691,228.919 47.436,228.850 47.280 C 228.807 47.182,228.578 47.101,228.342 47.101 C 228.106 47.101,227.779 46.940,227.615 46.742 C 227.451 46.545,227.122 46.384,226.883 46.384 C 226.643 46.384,226.381 46.276,226.300 46.145 C 226.219 46.013,225.893 45.906,225.577 45.906 C 225.010 45.906,225.000 45.942,224.933 48.417 C 224.840 51.866,224.406 51.791,224.319 48.311 C 224.282 46.797,224.135 45.436,223.991 45.263 C 223.488 44.656,172.517 44.817,171.907 45.427 C 171.644 45.690,171.429 45.988,171.429 46.088 C 171.429 46.188,171.186 46.377,170.891 46.506 L 170.353 46.742 170.353 75.908 C 170.353 104.885,170.356 105.075,170.831 105.163 C 171.297 105.250,172.146 105.979,172.146 106.294 C 172.146 106.380,171.896 106.287,171.590 106.087 C 171.285 105.887,170.774 105.686,170.455 105.641 L 169.874 105.559 169.814 76.085 L 169.753 46.610 169.177 46.391 C 168.860 46.271,168.531 45.954,168.447 45.688 C 168.207 44.932,168.094 44.929,144.650 45.001 L 122.534 45.069 122.457 45.742 C 122.415 46.112,122.570 46.704,122.803 47.057 C 123.413 47.984,123.427 53.669,122.821 54.593 C 122.598 54.934,122.415 55.424,122.415 55.681 C 122.415 56.175,121.780 57.498,121.279 58.046 C 121.115 58.225,120.980 58.472,120.980 58.593 C 120.980 59.131,117.709 62.403,117.170 62.403 C 117.049 62.403,116.803 62.537,116.623 62.702 C 116.076 63.202,114.753 63.837,114.258 63.837 C 114.001 63.837,113.552 63.986,113.261 64.168 C 112.970 64.350,112.102 64.558,111.332 64.632 C 110.562 64.705,109.862 64.834,109.778 64.918 C 109.611 65.085,109.584 74.105,109.692 93.226 C 109.737 101.298,109.678 105.361,109.512 105.527 C 109.342 105.697,109.265 105.588,109.265 105.176 C 109.265 104.848,109.148 104.462,109.005 104.319 C 108.818 104.132,108.818 104.014,109.005 103.898 C 109.319 103.704,109.372 65.572,109.059 65.079 C 108.950 64.907,108.226 64.703,107.449 64.626 C 106.673 64.548,105.825 64.339,105.565 64.161 C 105.306 63.983,104.838 63.837,104.524 63.837 C 104.211 63.837,103.509 63.542,102.964 63.180 C 102.418 62.818,101.666 62.364,101.292 62.171 C 100.519 61.771,98.104 59.245,97.767 58.484 C 97.644 58.206,97.281 57.549,96.959 57.023 C 96.638 56.497,96.370 55.793,96.364 55.457 C 96.359 55.122,96.219 54.713,96.055 54.549 C 95.625 54.118,95.641 47.867,96.075 47.056 C 96.250 46.729,96.357 46.148,96.314 45.765 L 96.234 45.069 66.401 45.008 C 42.651 44.960,36.547 45.008,36.472 45.247 M227.186 45.235 C 226.845 45.576,235.064 49.781,235.864 49.675 C 236.548 49.584,236.725 45.734,236.068 45.253 C 235.499 44.837,227.600 44.821,227.186 45.235 M96.029 45.550 C 96.106 45.749,96.044 46.062,95.892 46.245 C 94.312 48.148,95.205 56.061,97.250 58.286 C 97.415 58.465,97.549 58.702,97.549 58.813 C 97.549 59.465,101.102 62.881,101.780 62.881 C 101.951 62.881,102.092 62.989,102.092 63.120 C 102.092 63.252,102.218 63.359,102.372 63.359 C 102.526 63.359,102.822 63.498,103.030 63.668 C 103.394 63.966,105.402 64.646,106.635 64.888 C 106.964 64.953,107.609 65.097,108.069 65.209 L 108.906 65.411 108.906 84.529 L 108.906 103.646 108.010 103.720 L 107.113 103.795 107.113 105.463 L 107.113 107.132 109.085 107.063 L 111.058 106.993 111.058 105.439 C 111.058 104.010,111.015 103.879,110.520 103.809 L 109.982 103.732 109.982 84.529 L 109.982 65.326 110.640 65.192 C 111.001 65.118,111.835 64.948,112.493 64.815 C 114.463 64.415,117.871 62.849,117.872 62.343 C 117.872 62.244,118.003 62.164,118.163 62.164 C 118.554 62.164,120.741 59.991,120.741 59.603 C 120.741 59.433,120.822 59.295,120.921 59.294 C 121.145 59.294,122.422 57.066,122.838 55.947 C 123.931 53.012,123.976 48.663,122.941 46.109 C 122.551 45.148,121.578 45.188,145.271 45.188 C 168.770 45.188,168.320 45.169,168.320 46.168 C 168.320 46.293,168.589 46.498,168.917 46.622 L 169.514 46.849 169.575 76.324 L 169.635 105.798 170.212 105.879 C 170.529 105.924,170.940 106.113,171.126 106.298 C 171.311 106.483,171.616 106.635,171.804 106.635 C 173.232 106.635,171.690 110.767,170.183 110.980 C 169.509 111.076,169.457 111.736,170.114 111.856 C 170.377 111.905,170.753 112.078,170.950 112.242 C 171.148 112.405,171.497 112.606,171.727 112.688 C 173.129 113.185,171.898 116.566,170.157 117.003 C 169.323 117.212,169.333 117.820,170.173 118.018 C 172.782 118.632,172.734 122.702,170.114 123.172 C 169.441 123.293,169.516 123.952,170.214 124.051 C 172.738 124.407,172.712 128.793,170.183 129.151 L 169.635 129.229 169.575 161.779 L 169.514 194.330 168.944 194.473 C 168.598 194.560,168.314 194.853,168.223 195.216 L 168.072 195.816 102.327 195.816 L 36.581 195.816 36.581 157.261 L 36.581 118.706 37.534 118.408 C 38.058 118.245,38.730 118.111,39.028 118.110 C 39.326 118.109,39.878 117.948,40.254 117.751 C 40.631 117.555,41.046 117.394,41.176 117.394 C 41.306 117.394,41.891 117.071,42.476 116.677 C 43.060 116.282,43.599 115.959,43.672 115.959 C 43.815 115.959,46.015 113.719,46.641 112.936 C 47.297 112.116,48.536 109.451,48.536 108.860 C 48.536 108.548,48.697 107.907,48.894 107.435 C 49.091 106.963,49.253 106.065,49.253 105.439 C 49.253 104.814,49.091 103.916,48.894 103.444 C 48.697 102.972,48.536 102.321,48.536 101.997 C 48.536 101.284,47.174 98.267,46.852 98.267 C 46.726 98.267,46.623 98.117,46.623 97.934 C 46.623 96.731,41.527 93.216,39.091 92.739 C 38.434 92.610,37.600 92.444,37.238 92.370 L 36.581 92.235 36.581 68.712 L 36.581 45.188 66.236 45.188 C 92.486 45.188,95.907 45.230,96.029 45.550 M223.499 48.051 C 223.559 50.473,223.627 50.858,224.080 51.340 L 224.593 51.886 225.148 51.364 C 225.647 50.895,225.702 50.631,225.702 48.733 C 225.702 46.514,226.222 45.879,227.137 46.981 C 227.301 47.179,227.628 47.340,227.864 47.340 C 228.099 47.340,228.328 47.421,228.372 47.519 C 228.444 47.681,229.551 48.263,230.484 48.630 C 230.681 48.708,231.004 48.872,231.201 48.995 C 231.399 49.118,231.721 49.279,231.919 49.354 C 232.116 49.428,232.439 49.589,232.636 49.712 C 232.833 49.835,233.156 49.996,233.353 50.071 C 233.551 50.145,233.873 50.303,234.071 50.420 C 234.268 50.538,234.860 50.835,235.386 51.079 C 235.912 51.324,236.410 51.618,236.493 51.732 C 237.081 52.539,237.643 50.872,237.709 48.125 L 237.776 45.308 263.001 45.242 C 289.693 45.173,289.183 45.160,289.425 45.920 C 289.510 46.190,289.841 46.510,290.159 46.631 L 290.737 46.851 290.676 79.313 L 290.616 111.775 285.872 111.895 C 280.431 112.032,279.201 112.586,280.522 114.306 C 281.212 115.206,281.641 115.242,291.568 115.242 C 302.686 115.242,302.929 115.202,302.929 113.351 C 302.929 112.092,302.192 111.909,296.822 111.840 L 291.811 111.775 291.746 79.737 C 291.676 45.802,291.657 46.750,292.424 46.550 C 292.698 46.478,292.981 46.195,293.053 45.921 C 293.252 45.159,292.780 45.172,316.677 45.242 L 339.151 45.308 339.151 59.653 L 339.151 73.999 337.050 74.068 C 333.713 74.178,334.011 72.891,334.011 87.193 C 334.011 101.634,333.721 100.418,337.161 100.418 L 339.271 100.418 339.271 148.117 L 339.271 195.816 316.313 195.816 L 293.355 195.816 293.095 195.245 C 292.951 194.930,292.577 194.556,292.263 194.413 L 291.692 194.153 291.692 158.403 L 291.692 122.654 296.485 122.654 C 300.225 122.654,301.428 122.577,301.955 122.304 C 303.057 121.734,303.241 120.746,302.409 119.860 L 301.889 119.307 291.639 119.307 L 281.389 119.307 280.802 119.893 C 280.161 120.534,280.070 121.130,280.522 121.718 C 281.158 122.547,281.816 122.654,286.296 122.654 L 290.735 122.654 290.735 158.492 L 290.735 194.330 290.141 194.479 C 289.775 194.571,289.490 194.855,289.398 195.222 L 289.249 195.816 230.692 195.816 L 172.136 195.816 171.875 195.245 C 171.732 194.930,171.357 194.556,171.043 194.412 L 170.470 194.152 170.531 162.172 C 170.591 130.404,170.595 130.191,171.070 130.106 C 173.196 129.727,174.277 125.636,172.620 124.241 L 171.899 123.635 172.620 122.897 C 173.688 121.804,173.698 119.259,172.637 118.244 L 171.934 117.569 172.637 116.865 C 173.680 115.823,173.691 113.164,172.656 112.129 L 171.971 111.444 172.656 110.788 C 174.264 109.248,173.190 105.213,171.092 104.913 L 170.592 104.842 170.526 76.270 C 170.457 46.076,170.442 46.749,171.186 46.555 C 171.449 46.486,171.739 46.231,171.828 45.988 C 171.918 45.745,172.107 45.468,172.248 45.371 C 172.389 45.274,183.963 45.220,197.968 45.251 L 223.431 45.308 223.499 48.051 M235.696 47.078 C 235.735 48.051,235.681 48.932,235.576 49.036 C 235.370 49.239,227.865 45.667,227.858 45.362 C 227.856 45.260,229.603 45.206,231.739 45.242 L 235.625 45.308 235.696 47.078 M121.544 47.144 C 121.897 47.376,121.892 53.806,121.539 54.536 C 121.386 54.852,120.928 55.820,120.521 56.687 C 119.998 57.802,119.304 58.724,118.147 59.841 C 116.653 61.283,116.166 61.583,113.210 62.879 C 112.947 62.994,112.113 63.157,111.357 63.241 L 109.982 63.394 109.982 59.312 L 109.982 55.230 114.251 55.230 C 118.451 55.230,118.530 55.221,119.152 54.644 C 120.577 53.323,119.489 51.883,117.066 51.883 C 115.053 51.883,114.530 51.701,115.288 51.264 C 116.359 50.646,116.460 50.633,116.932 51.061 C 117.551 51.621,117.757 51.413,119.073 48.894 C 120.287 46.569,120.758 46.031,121.079 46.597 C 121.200 46.808,121.409 47.055,121.544 47.144 M100.729 48.966 C 103.610 51.856,103.616 51.883,101.317 51.883 C 98.828 51.883,97.672 53.077,98.843 54.440 L 99.419 55.111 104.163 55.230 L 108.906 55.350 108.906 59.295 L 108.906 63.240 107.352 63.155 C 106.497 63.108,105.762 62.974,105.718 62.856 C 105.674 62.738,105.471 62.642,105.266 62.642 C 104.829 62.642,102.726 61.648,102.610 61.387 C 102.566 61.288,102.435 61.207,102.319 61.207 C 101.932 61.207,98.506 57.582,98.506 57.172 C 98.506 57.046,98.329 56.584,98.113 56.146 C 97.897 55.708,97.574 55.045,97.395 54.673 C 96.874 53.584,96.945 47.723,97.490 46.974 C 98.053 46.199,97.840 46.068,100.729 48.966 M101.554 73.397 C 100.685 74.310,100.612 76.044,101.418 76.608 C 102.192 77.150,102.728 76.665,102.217 75.886 C 101.748 75.170,101.767 74.838,102.318 74.178 C 102.942 73.429,102.898 73.407,105.234 75.693 C 106.388 76.822,107.444 77.676,107.581 77.591 C 108.062 77.294,107.900 72.635,107.412 72.728 C 107.076 72.792,106.979 73.103,106.922 74.303 L 106.851 75.798 105.278 74.241 C 104.413 73.385,103.615 72.684,103.505 72.684 C 103.394 72.684,104.064 73.437,104.993 74.357 C 106.937 76.281,107.113 76.279,107.113 74.343 C 107.113 73.556,107.219 72.923,107.352 72.923 C 107.495 72.923,107.591 73.852,107.591 75.231 L 107.591 77.540 107.086 77.084 C 106.809 76.834,105.867 75.903,104.994 75.017 C 103.929 73.935,103.222 73.404,102.844 73.403 C 102.441 73.402,102.319 73.298,102.418 73.042 C 102.629 72.491,102.280 72.635,101.554 73.397 M102.331 73.611 C 102.331 73.726,102.170 73.955,101.973 74.118 C 101.511 74.501,101.510 75.647,101.970 76.029 C 102.166 76.191,102.263 76.427,102.185 76.552 C 102.106 76.680,101.846 76.600,101.590 76.368 C 101.017 75.849,100.994 74.529,101.547 73.882 C 101.980 73.377,102.331 73.256,102.331 73.611 M355.637 74.182 C 355.405 74.785,355.644 86.910,355.888 86.910 C 356.030 86.910,356.154 85.726,356.194 83.971 C 356.268 80.716,356.310 80.637,357.813 80.919 C 358.397 81.029,358.725 81.252,358.872 81.639 C 358.990 81.948,359.202 82.273,359.345 82.361 C 359.488 82.449,360.049 83.132,360.593 83.879 C 361.137 84.625,361.754 85.411,361.963 85.625 C 362.172 85.839,362.534 86.247,362.768 86.532 C 363.002 86.817,363.297 86.985,363.425 86.906 C 363.722 86.722,363.730 86.073,363.435 86.073 C 363.312 86.073,363.142 85.853,363.057 85.585 C 362.972 85.316,362.641 84.805,362.323 84.449 C 361.049 83.026,359.634 81.091,359.769 80.956 C 359.848 80.877,360.440 80.813,361.085 80.813 C 361.730 80.813,362.386 80.678,362.543 80.514 C 364.542 78.417,364.034 75.768,361.350 74.294 C 360.401 73.773,355.828 73.683,355.637 74.182 M358.518 74.583 L 356.127 74.716 356.127 77.466 L 356.127 80.215 359.235 80.335 C 361.980 80.440,362.176 80.474,360.909 80.623 C 358.999 80.847,359.159 80.844,357.791 80.673 C 356.132 80.466,356.038 80.638,355.947 84.056 C 355.905 85.625,355.848 84.085,355.819 80.634 L 355.768 74.357 358.338 74.404 L 360.909 74.450 358.518 74.583 M361.098 75.068 C 363.154 76.722,363.494 77.984,362.247 79.327 L 361.518 80.112 358.942 80.044 L 356.366 79.976 356.297 77.723 C 356.258 76.483,356.282 75.327,356.349 75.152 C 356.495 74.771,360.637 74.697,361.098 75.068 M335.732 75.840 C 335.319 76.253,335.319 98.284,335.732 98.697 C 336.207 99.171,343.910 99.092,344.394 98.608 C 344.887 98.115,344.972 76.329,344.483 75.840 C 344.080 75.437,336.135 75.437,335.732 75.840 M343.995 87.214 L 344.057 98.278 340.050 98.213 L 336.043 98.147 335.981 87.415 C 335.935 79.580,335.993 76.594,336.194 76.352 C 336.413 76.088,337.247 76.033,340.202 76.085 L 343.933 76.151 343.995 87.214 M363.353 78.238 C 363.300 78.668,363.255 78.374,363.254 77.585 C 363.253 76.796,363.296 76.445,363.351 76.804 C 363.405 77.163,363.406 77.809,363.353 78.238 M87.031 77.459 C 86.382 77.870,87.094 78.157,88.942 78.231 L 90.735 78.302 90.855 84.220 C 90.930 87.927,91.064 90.138,91.213 90.138 C 91.363 90.138,91.497 87.927,91.572 84.220 L 91.692 78.302 93.126 78.237 C 95.014 78.150,95.301 78.045,94.917 77.582 C 94.573 77.168,87.663 77.060,87.031 77.459 M93.252 77.883 C 91.242 77.995,91.349 77.641,91.283 84.399 L 91.226 90.257 91.100 84.160 L 90.974 78.063 88.942 77.929 C 87.486 77.832,88.029 77.794,90.855 77.795 C 93.025 77.796,94.103 77.836,93.252 77.883 M368.530 78.379 C 367.796 78.774,367.005 79.841,367.005 80.437 C 367.005 80.917,367.734 82.247,367.996 82.247 C 368.128 82.247,368.396 82.409,368.594 82.606 C 368.812 82.824,369.397 82.965,370.086 82.965 C 371.138 82.965,372.265 83.769,372.265 84.519 C 372.265 85.650,368.532 86.866,368.161 85.856 C 368.020 85.473,367.146 85.455,367.072 85.834 C 366.949 86.454,368.630 87.066,370.231 86.983 C 373.889 86.794,373.992 82.260,370.342 82.054 C 369.099 81.984,367.723 81.182,367.723 80.527 C 367.723 79.299,370.589 78.391,371.595 79.301 C 372.346 79.981,372.738 79.299,372.029 78.545 C 371.348 77.819,369.715 77.742,368.530 78.379 M371.429 78.422 C 371.520 78.569,371.108 78.661,370.353 78.661 C 369.598 78.661,369.186 78.569,369.277 78.422 C 369.358 78.290,369.842 78.183,370.353 78.183 C 370.863 78.183,371.347 78.290,371.429 78.422 M371.548 82.487 C 371.548 82.618,371.010 82.726,370.353 82.726 C 369.695 82.726,369.157 82.618,369.157 82.487 C 369.157 82.355,369.695 82.247,370.353 82.247 C 371.010 82.247,371.548 82.355,371.548 82.487 M371.548 86.551 C 371.548 86.684,370.915 86.790,370.128 86.790 C 369.346 86.790,368.641 86.683,368.559 86.551 C 368.467 86.401,368.995 86.312,369.980 86.312 C 370.866 86.312,371.548 86.416,371.548 86.551 M55.868 95.079 C 55.531 95.415,55.691 101.302,56.045 101.596 C 56.566 102.028,59.892 101.837,59.892 101.375 C 59.892 101.098,59.522 101.000,58.279 100.945 L 56.665 100.875 56.665 99.705 L 56.665 98.535 57.559 98.460 C 58.921 98.347,58.978 97.549,57.624 97.549 L 56.636 97.549 56.710 96.653 L 56.784 95.756 58.398 95.685 C 59.618 95.632,60.012 95.530,60.012 95.267 C 60.012 94.902,56.217 94.730,55.868 95.079 M58.219 95.380 L 56.545 95.517 56.545 96.593 C 56.545 97.664,56.549 97.669,57.442 97.743 C 58.647 97.843,58.589 98.267,57.370 98.267 L 56.402 98.267 56.473 99.641 L 56.545 101.016 58.219 101.143 C 60.307 101.302,59.766 101.669,57.596 101.566 L 56.067 101.494 55.999 98.639 C 55.912 94.950,55.794 95.150,58.032 95.201 L 59.892 95.243 58.219 95.380 M110.938 105.439 L 110.938 106.874 109.145 106.874 C 107.590 106.874,107.355 106.818,107.371 106.455 C 107.382 106.206,107.438 106.157,107.510 106.336 C 107.589 106.531,108.162 106.635,109.165 106.635 L 110.699 106.635 110.699 105.459 C 110.699 104.743,110.583 104.237,110.400 104.163 C 110.222 104.091,110.270 104.035,110.520 104.024 C 110.874 104.008,110.938 104.225,110.938 105.439 M108.937 104.901 C 109.011 105.132,109.116 105.466,109.171 105.646 C 109.320 106.134,109.982 105.513,109.982 104.884 C 109.982 104.529,110.056 104.461,110.240 104.645 C 110.985 105.391,110.387 106.273,109.085 106.348 L 107.830 106.421 107.830 105.452 C 107.830 104.408,108.646 104.002,108.937 104.901 M172.863 108.296 C 172.863 109.737,172.784 110.043,172.265 110.602 C 171.611 111.309,171.503 111.796,171.967 111.962 C 172.131 112.020,172.185 112.154,172.088 112.259 C 171.990 112.364,171.712 112.271,171.471 112.053 C 171.230 111.834,170.799 111.656,170.513 111.656 C 170.228 111.656,169.994 111.548,169.994 111.417 C 169.994 111.285,170.203 111.178,170.459 111.178 C 171.646 111.178,172.677 109.691,172.587 108.106 C 172.542 107.296,172.585 106.634,172.684 106.634 C 172.782 106.635,172.863 107.382,172.863 108.296 M185.830 116.838 L 185.894 123.252 188.882 123.252 C 191.379 123.252,191.871 123.193,191.871 122.893 C 191.871 122.601,191.396 122.522,189.305 122.467 L 186.739 122.399 186.675 116.492 C 186.616 111.066,186.577 110.580,186.189 110.505 C 185.792 110.429,185.770 110.816,185.830 116.838 M265.631 111.045 C 262.391 113.200,261.626 117.096,263.651 121.119 C 264.771 123.343,270.469 124.160,270.831 122.148 C 270.953 121.465,270.489 121.081,270.009 121.468 C 267.779 123.266,264.523 122.213,263.900 119.493 C 263.209 116.473,263.564 114.144,264.908 112.882 C 266.915 110.998,267.716 110.804,269.436 111.787 C 270.257 112.256,270.536 112.322,270.688 112.083 C 271.592 110.658,267.481 109.814,265.631 111.045 M186.442 122.594 C 186.469 122.627,187.615 122.654,188.988 122.654 C 190.394 122.654,191.549 122.758,191.632 122.893 C 191.727 123.047,190.758 123.132,188.896 123.132 L 186.013 123.132 186.065 116.856 L 186.116 110.580 186.255 116.557 C 186.331 119.845,186.415 122.561,186.442 122.594 M268.440 110.871 C 268.078 110.925,267.487 110.925,267.125 110.871 C 266.763 110.816,267.059 110.771,267.782 110.771 C 268.506 110.771,268.802 110.816,268.440 110.871 M263.236 116.961 C 263.238 117.315,263.132 117.671,263.001 117.753 C 262.854 117.843,262.763 117.457,262.765 116.751 C 262.768 115.920,262.833 115.700,263.001 115.959 C 263.128 116.157,263.234 116.608,263.236 116.961 M270.412 122.056 C 270.412 122.253,270.238 122.415,270.025 122.415 C 269.707 122.415,269.690 122.350,269.934 122.056 C 270.098 121.859,270.273 121.698,270.322 121.698 C 270.372 121.698,270.412 121.859,270.412 122.056 M268.739 122.893 C 268.739 123.025,268.308 123.132,267.782 123.132 C 267.256 123.132,266.826 123.025,266.826 122.893 C 266.826 122.762,267.256 122.654,267.782 122.654 C 268.308 122.654,268.739 122.762,268.739 122.893 M48.113 178.123 C 48.113 178.583,48.162 178.772,48.222 178.542 C 48.282 178.311,48.282 177.935,48.222 177.705 C 48.162 177.475,48.113 177.663,48.113 178.123 M109.320 178.123 C 109.320 178.583,109.369 178.772,109.430 178.542 C 109.490 178.311,109.490 177.935,109.430 177.705 C 109.369 177.475,109.320 177.663,109.320 178.123 M230.540 178.123 C 230.540 178.583,230.589 178.772,230.649 178.542 C 230.709 178.311,230.709 177.935,230.649 177.705 C 230.589 177.475,230.540 177.663,230.540 178.123 M351.759 178.123 C 351.759 178.583,351.808 178.772,351.868 178.542 C 351.928 178.311,351.928 177.935,351.868 177.705 C 351.808 177.475,351.759 177.663,351.759 178.123 " stroke="none" fill="#bc7c74" fill-rule="evenodd"></path><path id="path4" d="M89.108 36.495 C 88.768 36.835,89.272 37.059,90.377 37.059 C 91.526 37.059,92.146 37.422,91.587 37.767 C 91.430 37.864,91.146 38.243,90.957 38.608 C 90.692 39.119,90.686 39.211,90.930 39.008 C 91.164 38.814,91.336 38.822,91.578 39.037 C 91.854 39.283,91.859 39.266,91.607 38.931 C 91.363 38.607,91.369 38.495,91.640 38.334 C 91.824 38.224,92.035 37.893,92.109 37.597 C 92.184 37.301,92.155 37.114,92.044 37.182 C 91.934 37.250,91.777 37.197,91.694 37.063 C 91.611 36.929,90.985 36.801,90.303 36.777 C 89.202 36.739,89.264 36.717,90.855 36.581 L 92.648 36.428 90.954 36.385 C 90.023 36.361,89.192 36.411,89.108 36.495 M126.992 36.903 C 126.410 37.523,126.312 38.065,126.817 37.871 C 127.016 37.795,127.201 37.921,127.268 38.177 C 127.373 38.585,127.382 38.585,127.408 38.187 C 127.423 37.953,127.270 37.698,127.067 37.620 C 126.743 37.496,126.751 37.420,127.127 37.003 C 127.542 36.543,127.559 36.616,127.687 39.364 L 127.818 42.200 127.866 39.404 C 127.917 36.407,127.793 36.050,126.992 36.903 M125.659 38.237 C 125.263 38.674,125.263 38.694,125.662 38.635 C 125.892 38.601,126.107 38.394,126.139 38.175 C 126.214 37.669,126.167 37.675,125.659 38.237 M91.213 39.663 C 92.138 39.804,92.175 39.845,92.313 40.885 L 92.457 41.961 92.492 40.992 C 92.537 39.801,92.205 39.440,91.106 39.484 L 90.257 39.518 91.213 39.663 M91.948 42.307 C 91.543 42.454,91.535 42.493,91.881 42.626 C 92.097 42.709,92.342 42.666,92.425 42.532 C 92.639 42.187,92.483 42.113,91.948 42.307 M101.885 73.548 C 101.274 74.196,101.188 74.382,101.526 74.317 C 101.772 74.270,101.946 74.152,101.913 74.055 C 101.840 73.841,102.623 73.033,103.078 72.852 C 103.339 72.749,103.333 72.719,103.048 72.707 C 102.851 72.699,102.328 73.078,101.885 73.548 M103.412 73.154 C 103.327 73.292,103.506 73.505,103.810 73.627 C 104.145 73.761,104.222 73.863,104.005 73.884 C 103.800 73.903,103.916 74.038,104.274 74.198 C 104.620 74.351,104.916 74.558,104.932 74.656 C 104.948 74.755,105.038 74.828,105.131 74.818 C 105.225 74.808,105.363 74.978,105.439 75.194 C 105.515 75.411,105.665 75.553,105.771 75.511 C 105.877 75.468,106.088 75.733,106.240 76.099 C 106.514 76.761,106.517 76.762,106.832 76.253 C 107.006 75.972,107.041 75.808,106.909 75.890 C 106.778 75.971,105.972 75.332,105.118 74.471 C 104.233 73.576,103.500 73.011,103.412 73.154 M107.185 74.118 C 107.185 74.842,107.229 75.137,107.284 74.776 C 107.339 74.414,107.339 73.822,107.284 73.461 C 107.229 73.099,107.185 73.395,107.185 74.118 M101.489 76.265 C 101.724 76.524,102.015 76.676,102.136 76.602 C 102.434 76.418,101.887 75.792,101.428 75.792 C 101.119 75.792,101.129 75.867,101.489 76.265 M33.951 93.950 C 33.754 94.085,33.312 94.196,32.969 94.198 C 32.269 94.202,29.859 95.416,29.080 96.156 C 28.800 96.422,28.329 96.733,28.033 96.849 C 27.738 96.965,27.496 97.205,27.496 97.382 C 27.496 97.560,27.222 97.962,26.887 98.276 C 23.784 101.192,23.703 109.583,26.752 112.368 C 26.970 112.568,27.337 113.027,27.567 113.389 C 27.797 113.751,28.095 114.047,28.230 114.047 C 28.364 114.047,28.712 114.289,29.003 114.585 C 29.567 115.159,30.259 115.638,30.843 115.859 C 31.040 115.933,31.417 116.114,31.680 116.260 C 34.539 117.847,40.295 116.975,43.255 114.508 C 44.711 113.294,46.103 111.569,46.522 110.460 C 46.597 110.263,46.762 109.908,46.889 109.671 C 48.401 106.856,47.673 101.238,45.468 98.700 C 45.090 98.264,44.653 97.666,44.498 97.370 C 44.342 97.074,44.084 96.830,43.925 96.828 C 43.765 96.826,43.380 96.556,43.070 96.229 C 42.760 95.902,42.114 95.455,41.635 95.237 C 41.157 95.018,40.604 94.708,40.406 94.548 C 39.717 93.988,34.592 93.513,33.951 93.950 M37.418 96.308 C 39.133 96.415,39.382 96.832,37.730 96.832 C 36.302 96.832,36.136 96.971,36.069 98.226 C 36.045 98.673,35.991 98.577,35.890 97.908 C 35.752 97.006,35.693 96.947,34.848 96.877 C 34.354 96.837,33.951 96.709,33.951 96.593 C 33.951 96.477,34.354 96.349,34.848 96.309 C 35.722 96.236,35.747 96.207,35.848 95.158 L 35.952 94.082 36.087 95.158 L 36.222 96.234 37.418 96.308 M35.386 95.264 C 35.386 96.041,35.337 96.090,34.489 96.160 C 33.884 96.210,33.592 96.351,33.592 96.593 C 33.592 96.835,33.884 96.976,34.489 97.026 C 35.330 97.095,35.386 97.149,35.386 97.893 C 35.386 98.718,35.899 99.377,36.331 99.110 C 36.469 99.025,36.581 98.532,36.581 98.013 L 36.581 97.071 37.914 97.071 C 39.814 97.071,39.744 96.272,37.834 96.162 L 36.581 96.090 36.581 95.265 C 36.581 93.754,40.847 94.617,42.699 96.504 C 42.974 96.784,43.432 97.138,43.716 97.290 C 44.000 97.442,44.232 97.708,44.232 97.881 C 44.232 98.054,44.555 98.442,44.949 98.745 C 45.344 99.047,45.666 99.458,45.666 99.658 C 45.666 99.858,45.809 100.192,45.983 100.400 C 46.918 101.516,47.460 108.046,46.683 108.823 C 46.518 108.987,46.384 109.356,46.384 109.642 C 46.384 109.928,46.222 110.297,46.025 110.460 C 45.828 110.624,45.662 110.933,45.656 111.147 C 45.651 111.361,45.328 111.800,44.939 112.123 C 44.550 112.445,44.232 112.852,44.232 113.027 C 44.232 113.201,44.044 113.411,43.814 113.492 C 43.583 113.574,43.105 113.947,42.751 114.322 C 42.397 114.696,41.961 115.003,41.783 115.003 C 41.604 115.003,41.335 115.126,41.185 115.277 C 40.077 116.385,34.524 116.883,32.584 116.048 C 30.308 115.069,29.707 114.739,29.176 114.174 C 28.864 113.841,28.465 113.568,28.291 113.568 C 28.116 113.568,27.974 113.471,27.974 113.352 C 27.974 113.233,27.597 112.685,27.137 112.134 C 26.677 111.583,26.300 110.981,26.300 110.796 C 26.300 110.611,26.219 110.460,26.119 110.460 C 25.524 110.460,24.782 106.523,24.970 104.363 C 25.207 101.637,26.162 99.571,28.129 97.530 C 29.786 95.811,32.434 94.481,34.250 94.456 L 35.386 94.441 35.386 95.264 M29.530 103.762 C 29.136 104.400,29.893 104.483,36.134 104.483 C 42.157 104.483,42.588 104.455,42.513 104.065 C 42.418 103.572,29.829 103.279,29.530 103.762 M42.200 104.005 C 42.297 104.162,40.210 104.244,36.117 104.244 C 32.123 104.244,29.886 104.158,29.886 104.005 C 29.886 103.852,32.073 103.766,35.969 103.766 C 39.766 103.766,42.107 103.856,42.200 104.005 M29.707 106.315 C 29.286 106.485,29.335 107.034,29.786 107.207 C 31.192 107.746,33.992 107.022,32.979 106.381 C 32.621 106.154,30.225 106.106,29.707 106.315 M34.998 106.504 C 34.766 107.109,35.141 107.352,36.308 107.352 C 37.572 107.352,38.168 106.987,37.741 106.473 C 37.370 106.026,35.172 106.051,34.998 106.504 M39.725 106.472 C 39.271 107.019,39.966 107.390,41.284 107.306 C 42.255 107.244,42.439 107.156,42.439 106.754 C 42.439 106.142,40.192 105.909,39.725 106.472 M32.098 106.808 C 31.671 106.861,30.971 106.861,30.544 106.808 C 30.117 106.755,30.466 106.711,31.321 106.711 C 32.176 106.711,32.525 106.755,32.098 106.808 M36.999 106.806 C 36.638 106.861,36.046 106.861,35.684 106.806 C 35.323 106.751,35.619 106.706,36.342 106.706 C 37.065 106.706,37.361 106.751,36.999 106.806 M41.781 106.806 C 41.420 106.861,40.828 106.861,40.466 106.806 C 40.105 106.751,40.400 106.706,41.124 106.706 C 41.847 106.706,42.143 106.751,41.781 106.806 " stroke="none" fill="#c48464" fill-rule="evenodd"></path></g></svg>